<?xml version="1.0" standalone="no"?>
<!DOCTYPE svg PUBLIC "-//W3C//DTD SVG 1.1//EN" "http://www.w3.org/Graphics/SVG/1.1/DTD/svg11.dtd" >
<svg xmlns="http://www.w3.org/2000/svg">
<metadata>
This is a custom SVG font generated by IcoMoon.
<iconset grid="36"></iconset>
</metadata>
<defs>
<font id="ClientConnect" horiz-adv-x="1152" >
<font-face units-per-em="1152" ascent="1088" descent="-64" />
<missing-glyph horiz-adv-x="1152" />
<glyph class="hidden" unicode="&#xf000;" d="M0,1088L 1152 -64L0 -64 z" horiz-adv-x="0" />
<glyph unicode="&#xe000;" d="M 1042.42,561.257L 1073.769,529.908L 983.901,440.041L 838.447,440.041L 738.432,340.026L 606.068,295.889L 458.74,345.018L 363.636,293.050L 363.636,244.561L 462.487,292.631L 606.068,244.794L 764.614,297.647L 858.519,391.54L 1003.974,391.54L 1108.061,495.628L 1139.398,464.268L 1163.636,585.495 zM 465.92,240.396L 460.614,237.801L 460.614,214.598L 501.329,228.585 zM 465.92,240.396L 363.636,190.627L 363.636-69.050L 509.091-69.050L 509.091,226.001 zM 516.294,1091.456c-4.55,1.42-9.228,1.92-13.638,0.687C 496.698,1092.364, 490.868,1093.050, 484.852,1093.050  c-6.004,0-11.834-0.687-17.78-0.908c-4.422,1.233-9.111,0.733-13.649-0.687C 200.751,1075.119,0,864.943,0,608.198  C0,400.582, 131.34,223.395, 315.159,154.438l0,12.614 l0,53.085 l0,24.436 l0,6.575 L 315.159,293.050 l0,21.353 c-9.239,2.176-18.548,4.259-27.613,6.842  c-32.058,61.033-52.887,132.038-60.276,206.732c 71.11-23.18, 150.423-37.19, 233.332-40.32l0-92.172 l 13.475-4.468l 35.014-11.683l0,108.323   c 82.909,3.13, 162.246,17.14, 233.332,40.32c-5.097-51.503-16.977-100.957-34.129-146.874l 3.933,1.292l 66.199,66.188  c 6.982,31.814, 11.881,64.512, 14.022,97.827c 48.291,19.956, 91.625,44.497, 128.186,73.193c 0.093-3.828, 0.57-7.54, 0.57-11.404  c0-41.565-6.353-81.583-17.303-119.668l 50.467,0 c 9.879,38.284, 15.313,78.313, 15.313,119.668C 969.693,864.943, 768.989,1075.119, 516.294,1091.456z   M 360.588,1026.281c-42.671-38.086-78.673-83.025-107.322-133.399c-22.284,11.788-41.984,25.309-58.543,40.343  C 242.013,975.488, 298.287,1007.721, 360.588,1026.281z M 160.628,899.212c 20.073-18.56, 43.834-34.991, 70.54-49.199  c-29.219-63.639-47.628-134.377-53.527-209.967c-1.047-13.51-1.583-26.985-1.792-40.436c-47.174,21.574-88.25,48.128-121.146,79.023  C 68.433,762.659, 106.089,838.505, 160.628,899.212z M 89.868,431.407c-1.559,1.559-3.468,2.479-5.306,3.526  c-23.11,53.167-36.084,111.697-36.084,173.277c0,3.863, 0.477,7.575, 0.582,11.404c 36.561-28.695, 79.907-53.236, 128.198-73.193  c 4.608-71.587, 20.748-140.73, 46.743-202.985C 173.137,364.94, 127.244,394.019, 89.868,431.407z M 255.127,280.262  c 13.975-24.273, 29.615-46.929, 46.825-67.712c-56.716,26.333-106.833,64.326-147.235,111.127C 186.217,306.129, 219.846,291.619, 255.127,280.262z   M 460.614,536.134c-84.969,3.293-165.69,18.42-236.241,43.613c-0.256,18.746, 0.128,37.609, 1.617,56.529  c 5.434,69.748, 22.412,134.924, 49.303,193.42c 54.97-21.83, 118.307-35.13, 185.321-38.447L 460.614,536.134 z M 460.614,839.645  c-58.612,3.293-114.548,14.848-162.909,33.257c 39.948,68.783, 95.151,125.999, 162.909,167.459L 460.614,839.645 z M 775.005,933.236  c-16.559-15.034-36.259-28.556-58.554-40.343c-28.649,50.385-64.64,95.313-107.299,133.399C 671.441,1007.721, 727.703,975.488, 775.005,933.236z   M 509.091,1040.349c 67.782-41.449, 122.961-98.676, 162.932-167.459c-48.372-18.42-104.308-29.975-162.932-33.257L 509.091,1040.349 z M 509.091,536.134L 509.091,791.238   c 67.049,3.316, 130.351,16.617, 185.321,38.447c 26.903-58.496, 43.892-123.671, 49.315-193.42c 1.489-18.921, 1.862-37.783, 1.606-56.529  C 674.793,554.554, 594.095,539.415, 509.091,536.134z M 793.891,599.61c-0.233,13.44-0.745,26.915-1.792,40.436  c-5.923,75.59-24.343,146.339-53.539,209.967c 26.694,14.208, 50.455,30.639, 70.54,49.199c 54.551-60.707, 92.195-136.553, 105.926-220.579  C 882.106,647.727, 841.041,621.184, 793.891,599.61zM 606.068,193.676L 557.58,209.85L 557.58-69.050L 703.034-69.050L 703.034,226.001 zM 878.627,343.075L 790.819,255.255L 751.523,242.164L 751.523-69.050L 896.966-69.050L 896.966,343.075 zM 1024.081,343.075L 945.455,343.075L 945.455-69.050L 1090.909-69.050L 1090.909,409.914 z" horiz-adv-x="1163.636" />
<glyph unicode="&#xe001;" d="M 661.225,455.852L 959.386,893.819L 959.247,766.546L 1021.617,766.546L 1021.755,1000.402L 1020.695,1000.402L 1020.695,1001.416L 786.839,1001.485L 786.839,939.139L 914.803,939.069L 644.774,542.528L 327.168,759.496L 28.109,386.132L 76.815,347.172L 339.702,675.4  zM 930.033,432.051L 885.934,387.953L 976.62,297.198L 713.065,297.198L 381.243,525.893L 203.328,300.262L 252.38,261.601L 393.961,441.313L 693.619,234.829L 976.689,234.829L 885.819,144.028L 929.894,99.93L 1095.299,265.196L 1094.584,265.91L 1095.299,266.601  z" />
<glyph unicode="&#xe002;" d="M 446.020,769.841A129.75,129.75 180 1 1 705.519,769.841A129.75,129.75 180 1 1 446.020,769.841zM 575.77,604.436c-91.204,0-165.404,74.212-165.404,165.404c0,91.204, 74.2,165.393, 165.404,165.393s 165.404-74.189, 165.404-165.393   C 741.174,678.648, 666.962,604.436, 575.77,604.436z M 575.77,863.936c-51.886,0-94.084-42.209-94.084-94.095s 42.209-94.084, 94.084-94.084   c 51.886,0, 94.084,42.198, 94.084,94.084S 627.656,863.936, 575.77,863.936zM 233.361,131.84C 117.389,131.84, 23.040,226.166, 23.040,342.149c0,34.053, 8.006,66.701, 23.812,96.998l 186.509,365.426l 186.647-365.679   c 15.667-30.033, 23.685-62.68, 23.685-96.733C 443.693,226.166, 349.332,131.84, 233.361,131.84z M 233.361,647.694L 110.235,406.465   C 99.648,386.144, 94.349,364.602, 94.349,342.149c0-76.643, 62.369-138.989, 139.012-138.989c 76.643,0, 139.012,62.346, 139.012,138.989   c0,22.452-5.288,43.995-15.748,64.063L 233.361,647.694zM 388.247,422.674c 12.58-24.123, 19.78-51.471, 19.78-80.525c0-96.457-78.209-174.643-174.666-174.643S 58.694,245.692, 58.694,342.149   c0,29.053, 7.212,56.402, 19.78,80.525L 388.247,422.674 zM 919.607,131.84c-115.983,0-210.332,94.326-210.332,210.309c0,34.053, 8.006,66.701, 23.812,96.998l 186.509,365.426l 186.636-365.679   c 15.667-30.033, 23.685-62.68, 23.685-96.733C 1129.928,226.166, 1035.579,131.84, 919.607,131.84z M 919.607,647.694l-123.137-241.229   c-10.587-20.321-15.875-41.864-15.875-64.316c0-76.643, 62.369-138.989, 139.012-138.989s 139,62.346, 139,138.989   c0,22.452-5.299,43.995-15.736,64.063L 919.607,647.694zM 1074.482,422.674c 12.58-24.123, 19.78-51.471, 19.78-80.525c0-96.457-78.209-174.643-174.655-174.643c-96.468,0-174.666,78.186-174.666,174.643   c0,29.053, 7.2,56.402, 19.768,80.525L 1074.482,422.674 zM 233.361,805.507L 919.607,805.507L 919.607,734.186L 233.361,734.186z" />
<glyph unicode="&#xe003;" d="M 600.745,809.815c-8.076,0.864-16.232,1.394-24.48,1.394c-0.115,0-0.161,0-0.161,0s0,0-0.081,0  c-8.375,0-16.6-0.53-24.756-1.394C 240.503,795, 92.506,511.942, 92.506,511.942S 248.014,212.791, 576.115,212.791  c 327.963,0, 483.379,299.14, 483.379,299.14S 911.532,795, 600.745,809.815z M 497.030,663.096c 35.551,0, 64.362-28.8, 64.362-64.282  c0-35.562-28.812-64.443-64.362-64.443c-35.505,0-64.282,28.881-64.282,64.443C 432.737,634.296, 461.514,663.096, 497.030,663.096z M 576.115,297.843  c-208.431,0-335.14,141.892-386.127,214.088c 30.632,43.476, 89.027,112.205, 176.141,160.059c-11.543-27.21-17.868-57.185-17.868-88.554  c0-125.833, 101.94-227.831, 227.762-227.831c 125.856,0, 227.82,101.998, 227.82,227.831c0,31.196-6.348,60.975-17.706,88.070  c 86.734-47.889, 145.221-116.41, 175.933-159.644C 911.105,439.747, 784.374,297.843, 576.115,297.843z" />
<glyph unicode="&#xe004;" d="M 803.773,588.32c0,22.337-3.283,43.764-9.285,64.189L 649.187,372.712   C 739.077,403.228, 803.773,488.142, 803.773,588.32zM 715.139,873.912l-36.161-69.581c-24.998,5.046-50.746,9.055-78.255,10.437   c-8.052,0.818-16.209,1.302-24.549,1.302c0,0-0.104,0-0.184,0l0,0c-8.364,0-16.577-0.484-24.733-1.302   c-310.717-14.849-458.761-297.907-458.761-297.907s 97.436-186.163, 299.773-264.557l-28.961-55.918l 89.28-46.299l 351.878,677.457L 715.139,873.912z    M 431.332,327.438c-123.771,43.903-203.478,135.821-241.448,189.458c 30.712,43.442, 89.188,112.124, 176.221,160.013c-11.52-27.279-17.844-57.185-17.844-88.577   c0-85.052, 46.575-159.080, 115.615-198.236L 431.332,327.438z M 497.042,539.372c-35.493,0-64.282,28.8-64.282,64.362c0,35.482, 28.8,64.282, 64.282,64.282   c 35.516,0, 64.316-28.8, 64.316-64.282C 561.37,568.172, 532.57,539.372, 497.042,539.372zM 840.419,740.948l-38.442-74.12c 77.887-47.117, 131.34-109.601, 160.070-150.060   c-47.727-67.668-162.271-196.716-348.307-212.337l-44.801-86.388c 2.35-0.092, 4.643-0.323, 7.050-0.323   c 328.044,0, 483.529,299.14, 483.529,299.14S 987.863,652.602, 840.419,740.948z" />
<glyph unicode="&#xe005;" d="M 167.547,445.334c 14.803-56.609, 57.946-108.265, 110.58-146.143L 258.785,177.92l 149.795,0 l 2.039,61.137c 33.362-8.191, 68.913-11.704, 105.823-11.704   c 36.899,0, 72.438,4.965, 105.846,13.156l 2.004-58.959l 134.577-0.887l-506.88,505.521c0,0-69.754-60.572-84.453-132.653   C 164.851,539.003, 156.695,499.535, 167.547,445.334zM 968.867,627.2l-74.592,0 C 886.602,650.24, 875.52,661.806, 864,676.701L 864,864.915 l-129.646-89.741c-47.9,18.996-88.174,46.426-176.014,42.106   c-43.177-2.12-80.444-24.48-80.444-24.48l 395.689-395.274c0,0, 15.575,33.846, 20.69,45.366l 74.592,0 C 988.623,442.88, 1002.24,461.116, 1002.24,478.166L 1002.24,598.331    C 1002.24,615.427, 988.635,627.2, 968.867,627.2z M 785.468,636.105c-13.709,0-24.837,10.909-24.837,24.376s 11.128,24.376, 24.837,24.376s 24.837-10.909, 24.837-24.376   S 799.177,636.105, 785.468,636.105zM 573.12,1087.044c-317.606,0-576-258.394-576-576s 258.394-576, 576-576c 317.606,0, 576,258.394, 576,576S 890.726,1087.044, 573.12,1087.044z M 573.12,50.232   c-254.085,0-460.8,206.715-460.8,460.8c0,111.226, 39.606,213.362, 105.466,293.069l 648.415-648.392C 786.493,89.85, 684.357,50.232, 573.12,50.232z    M 945.193,239.621L 301.72,883.105c 76.182,55.734, 169.989,88.739, 271.411,88.739c 254.085,0, 460.8-206.715, 460.8-460.8   C 1033.92,409.622, 1000.915,315.814, 945.193,239.621z" />
<glyph unicode="&#xe006;" d="M 642.712,787.397c0-118.99-96.307-215.343-215.171-215.343c-118.921,0-215.228,96.353-215.228,215.343     c0,118.852, 96.296,215.171, 215.228,215.171C 546.405,1002.568, 642.712,906.26, 642.712,787.397zM 828.691,116.634c0-126.927-802.287-126.927-802.287,0c0,190.368, 179.528,334.080, 401.138,334.080C 649.21,450.714, 828.691,307.002, 828.691,116.634zM 1125.596,814.665L 998.669,814.665L 998.669,941.581L 871.753,941.581L 871.753,814.665L 744.837,814.665L 744.837,687.749L 871.753,687.749L 871.753,560.833L 998.669,560.833L 998.669,687.749L 1125.596,687.749  z" />
<glyph unicode="&#xe007;" d="M 791.171,787.397c0-118.99-96.307-215.343-215.171-215.343c-118.921,0-215.228,96.353-215.228,215.343     c0,118.852, 96.296,215.171, 215.228,215.171C 694.852,1002.556, 791.171,906.249, 791.171,787.397zM 977.138,116.634c0-126.927-802.287-126.927-802.287,0c0,190.368, 179.528,334.080, 401.138,334.080C 797.668,450.714, 977.138,307.002, 977.138,116.634z" />
<glyph unicode="&#xe008;" d="M 585.7,594.022c 14.642,7.661, 20.321,25.828, 12.637,40.481c-7.718,14.711-25.874,20.356-40.527,12.66    c-14.711-7.718-20.344-25.862-12.637-40.562C 552.879,591.937 571.012,586.281 585.7,594.022zM 939.203,413.032c 14.964,14.653, 33.155,22.095, 54.075,22.095c 21.531,0, 40.067-7.442, 55.112-22.095   c 14.988-14.792, 22.625-33.155, 22.625-54.616c0-20.92-7.615-39.156-22.625-54.144c-15.022-15.034-33.535-22.671-55.112-22.671   c-20.92,0-39.156,7.638-54.121,22.66c-14.999,14.988-22.614,33.201-22.614,54.156C 916.554,379.912 924.169,398.298 939.203,413.032z    M 970.525,335.537c 6.29-6.324, 13.893-9.4, 22.764-9.4c 8.882,0, 16.474,3.087, 22.81,9.4c 6.324,6.348, 9.469,13.928, 9.469,22.879   c0,8.801-3.145,16.37-9.469,22.706c-6.348,6.348-13.928,9.585-22.81,9.585c-8.87,0-16.474-3.237-22.764-9.585   c-6.336-6.336-9.492-13.905-9.492-22.706C 961.033,349.464 964.189,341.873 970.525,335.537zM 560.989,413.032c-14.964,14.653-33.155,22.095-54.086,22.095c-21.519,0-40.055-7.442-55.1-22.095   c-14.999-14.792-22.637-33.155-22.637-54.616c0-20.92, 7.615-39.156, 22.637-54.144c 15.011-15.034, 33.535-22.671, 55.1-22.671   c 20.932,0, 39.156,7.638, 54.132,22.66c 15.011,14.988, 22.614,33.201, 22.614,54.156C 583.649,379.912 576.035,398.298 560.989,413.032z    M 529.667,335.537c-6.29-6.324-13.893-9.4-22.764-9.4c-8.882,0-16.462,3.087-22.798,9.4c-6.324,6.348-9.469,13.928-9.469,22.879   c0,8.801, 3.145,16.37, 9.469,22.706c 6.336,6.348, 13.916,9.585, 22.798,9.585c 8.87,0, 16.474-3.237, 22.764-9.585   c 6.336-6.336, 9.516-13.905, 9.516-22.706C 539.171,349.464 536.003,341.873 529.667,335.537zM 1129.064,444.781l0,35.781 c0,0,0,15.978,0,24.042l 0.115,0 l0,8.122 c0,27.982-24.641,50.642-55.054,50.642l-132.964,0 l-72.76,131.34   c-6.348,11.808-20.851,18.144-33.546,18.144l-312.204,0 c-15.817,0.346-29.583-9.354-34.18-24.653l-27.89-124.831l-34.502,0    c-30.413,0-55.054-22.66-55.054-50.642l0-8.122 l 0.127,0 c0-8.064,0-24.042,0-24.042l0-35.781 l-22.798,0 l0-44.652 c0-15.748, 7.937-23.72, 23.766-23.72l 21.819,0    c 1.901,26.577, 14.124,49.225, 36.553,67.922c 22.487,18.628, 47.624,27.959, 75.479,27.959c 27.844,0, 53.153-9.331, 75.951-27.959   c 22.775-18.685, 35.101-41.345, 37.025-67.922l 262.345,0 c 1.912,26.577, 14.227,49.225, 37.014,67.922c 22.798,18.628, 48.108,27.959, 75.951,27.959   c 27.867,0, 53.004-9.331, 75.479-27.959c 22.441-18.685, 34.675-41.345, 36.564-67.922l 21.83,0 c 15.817,0, 23.754,7.96, 23.754,23.72l0,44.652 L 1129.064,444.781 z    M 669.957,571.397c0-8.594-6.924-15.54-15.517-15.54l-31.058,0 c-8.709,11.174-22.395,24.733-39.26,27.924   c-17.257,3.249-31.53-12.407-34.583-22.533c-0.599-1.797-1.106-3.571-1.613-5.345l-5.046,0 c-12.073,0-18.075,6.036-18.075,18.040l0,74.592    c0,12.027, 6.002,18.063, 18.075,18.063l 111.571,0c 8.594,0, 15.517-6.935, 15.517-15.529L 669.969,571.397 z M 877.202,555.903l-153.043,0    c-12.073,0-18.063,6.036-18.063,18.040l0,74.097 c0,12.027, 6.002,18.063, 18.063,18.063l 104.509,0 c 7.592,0, 13.087-2.039, 17.338-8.801l 39.398-85.882   c 1.060-1.624, 1.647-3.433, 1.647-5.748C 887.040,559.151 883.711,555.903 877.202,555.903zM 309.681,375.5c-9.009,0-16.381,7.384-16.381,16.278c0,9.009, 7.373,16.393, 16.381,16.393c 8.905,0, 16.278-7.384, 16.278-16.393   C 325.958,382.884 318.586,375.5 309.681,375.5L 309.681,375.5z M 263.082,375.5c-9.020,0-16.278,7.384-16.278,16.278   c0,9.009, 7.258,16.393, 16.278,16.393s 16.393-7.384, 16.393-16.393C 279.475,382.884 272.102,375.5 263.082,375.5L 263.082,375.5z    M 216.599,375.5c-9.009,0-16.393,7.384-16.393,16.278c0,9.009, 7.384,16.393, 16.393,16.393c 9.020,0, 16.278-7.384, 16.278-16.393   C 232.877,382.884 225.619,375.5 216.599,375.5L 216.599,375.5z M 170.116,375.5c-9.009,0-16.381,7.384-16.381,16.278   c0,9.009, 7.373,16.393, 16.381,16.393c 8.893,0, 16.278-7.384, 16.278-16.393C 186.394,382.884 179.021,375.5 170.116,375.5   L 170.116,375.5z M 123.517,375.5c-8.893,0-16.278,7.384-16.278,16.278c0,9.009, 7.373,16.393, 16.278,16.393   c 9.020,0, 16.393-7.384, 16.393-16.393C 139.91,382.884 132.538,375.5 123.517,375.5L 123.517,375.5zM 324.553,487.209c-9.020,0-16.393,7.373-16.393,16.266c0,9.020, 7.373,16.393, 16.393,16.393s 16.278-7.373, 16.278-16.393   C 340.819,494.57 333.573,487.209 324.553,487.209L 324.553,487.209z M 278.070,487.209c-9.020,0-16.393,7.373-16.393,16.266   c0,9.020, 7.384,16.393, 16.393,16.393c 8.893,0, 16.278-7.373, 16.278-16.393C 294.348,494.57 286.963,487.209 278.070,487.209   L 278.070,487.209z M 231.471,487.209c-9.020,0-16.278,7.373-16.278,16.266c0,9.020, 7.258,16.393, 16.278,16.393   c 9.009,0, 16.393-7.373, 16.393-16.393C 247.864,494.57 240.48,487.209 231.471,487.209L 231.471,487.209z M 184.988,487.209   c-9.020,0-16.393,7.373-16.393,16.266c0,9.020, 7.373,16.393, 16.393,16.393s 16.278-7.373, 16.278-16.393   C 201.266,494.57 194.008,487.209 184.988,487.209L 184.988,487.209z M 138.505,487.209c-9.020,0-16.393,7.373-16.393,16.266   c0,9.020, 7.373,16.393, 16.393,16.393s 16.278-7.373, 16.278-16.393C 154.783,494.57 147.525,487.209 138.505,487.209L 138.505,487.209z    M 91.907,487.209c-9.020,0-16.278,7.373-16.278,16.266c0,9.020, 7.258,16.393, 16.278,16.393s 16.393-7.373, 16.393-16.393   C 108.3,494.57 100.927,487.209 91.907,487.209L 91.907,487.209zM 295.407,429.943c-9.020,0-16.393,7.384-16.393,16.404c0,8.997, 7.384,16.266, 16.393,16.266c 9.009,0, 16.266-7.269, 16.266-16.266   C 311.674,437.327 304.416,429.943 295.407,429.943L 295.407,429.943z M 248.797,429.943c-8.893,0-16.278,7.384-16.278,16.404   c0,8.997, 7.373,16.266, 16.278,16.266c 9.020,0, 16.393-7.269, 16.393-16.266C 265.19,437.327 257.818,429.943 248.797,429.943   L 248.797,429.943z M 202.314,429.943c-9.009,0-16.278,7.384-16.278,16.404c0,8.997, 7.258,16.266, 16.278,16.266   c 9.020,0, 16.393-7.269, 16.393-16.266C 218.707,437.327 211.334,429.943 202.314,429.943L 202.314,429.943z M 155.831,429.943   c-9.020,0-16.393,7.384-16.393,16.404c0,8.997, 7.373,16.266, 16.393,16.266c 9.009,0, 16.278-7.269, 16.278-16.266   C 172.109,437.327 164.851,429.943 155.831,429.943L 155.831,429.943z M 109.359,429.943c-9.020,0-16.393,7.384-16.393,16.404   c0,8.997, 7.373,16.266, 16.393,16.266c 9.009,0, 16.278-7.269, 16.278-16.266C 125.626,437.327 118.368,429.943 109.359,429.943   L 109.359,429.943z M 62.749,429.943c-8.893,0-16.278,7.384-16.278,16.404c0,8.997, 7.373,16.266, 16.278,16.266   c 9.020,0, 16.393-7.269, 16.393-16.266C 79.142,437.327 71.77,429.943 62.749,429.943L 62.749,429.943z M 16.278,429.943   c-9.020,0-16.278,7.384-16.278,16.404c0,8.997, 7.258,16.266, 16.278,16.266c 9.009,0, 16.381-7.269, 16.381-16.266   C 32.659,437.327 25.286,429.943 16.278,429.943L 16.278,429.943z" />
<glyph unicode="&#xe009;" d="M 575.954,844.375c-244.143,0-442.771-198.628-442.771-442.783c0-244.12, 198.628-442.76, 442.771-442.76  c 244.132,0, 442.771,198.628, 442.771,442.76C 1018.702,645.736, 820.086,844.375, 575.954,844.375z M 575.954,34.196  c-202.591,0-367.407,164.828-367.407,367.396c0,202.591, 164.817,367.419, 367.407,367.419c 202.579,0, 367.396-164.84, 367.396-367.419  C 943.338,199.002, 778.533,34.196, 575.954,34.196zM 556.451,722.689L 595.457,722.689L 595.457,608.641L 556.451,608.641zM 556.451,194.543L 595.457,194.543L 595.457,80.553L 556.451,80.553zM 782.957,421.107L 897.016,421.107L 897.016,382.124L 782.957,382.124zM 254.88,421.107L 368.882,421.107L 368.882,382.124L 254.88,382.124zM 505.428,890.95L 646.456,890.95L 646.456,1001.439L 695.969,1001.439L 695.969,1066.458L 455.916,1066.458L 455.916,1001.439L 505.428,1001.439 zM 819.798,600.186l-42.186,42.186L 623.601,488.372c-14.135,7.788-30.367,12.246-47.647,12.246c-54.697,0-99.014-44.352-99.014-99.037  c0-54.662, 44.329-99.003, 99.014-99.003c 54.674,0, 98.98,44.34, 98.98,99.003c0,15.644-3.709,30.401-10.184,43.546L 819.798,600.186zM 963.060,694.35L 873.573,783.86L 919.826,830.102L 1009.313,740.591z" />
<glyph unicode="&#xe00a;" d="M 457.010,398.689L 263.612,398.689 c-62.484,0-113.311,50.826-113.311,113.311s 50.826,113.311, 113.311,113.311l 255.732,0 c 62.484,0, 113.311-50.826, 113.311-113.311   c0-32.244-13.594-61.286-35.274-81.942c 13.617-9.135, 29.929-14.538, 47.52-14.538l 34.134,0 c 17.096,28.201, 27.13,61.16, 27.13,96.48   c0,103.012-83.808,186.82-186.82,186.82L 263.612,698.82 c-103.012,0-186.808-83.796-186.808-186.82s 83.796-186.82, 186.808-186.82l 255.732,0    c 1.198,0, 2.373,0.161, 3.56,0.184C 495.648,344.326, 473.046,369.417, 457.010,398.689zM 694.979,625.311l 193.409,0 c 62.484,0, 113.311-50.826, 113.311-113.322c0-62.473-50.826-113.299-113.311-113.299L 632.655,398.689    c-62.484,0-113.311,50.826-113.311,113.299c0,32.244, 13.594,61.298, 35.274,81.953c-13.617,9.135-29.929,14.527-47.52,14.527l-34.111,0    c-17.107-28.189-27.141-61.148-27.141-96.48c0-103, 83.796-186.808, 186.808-186.808l 255.732,0 c 103,0, 186.82,83.796, 186.82,186.808   c0,103.023-83.808,186.831-186.82,186.831L 632.655,698.82 c-1.198,0-2.362-0.161-3.56-0.184C 656.352,679.674, 678.966,654.583, 694.979,625.311z" />
<glyph unicode="&#xe00b;" d="M 717.362,365.8c 3.122,70.134, 11.969,94.545, 26.22,112.055c 60.883,59.028, 95.789,141.27, 95.789,225.838
			c0,4.689-0.161,9.354-0.369,13.997c-13.559-7.799-29.549-12.269-46.875-12.269c-16.785,0-32.314,4.193-45.562,11.543
			c 0.242-4.412, 0.426-8.836, 0.426-13.271c 0.023-60.422-25.494-119.382-69.949-161.798l-1.348-1.417c-33.062-38.776-46.794-85.006-50.607-170.554
			c-0.622-13.812, 4.032-26.3, 13.029-35.171c 7.983-7.857, 19.020-12.476, 31.023-13.029c 0.783-0.023, 1.578-0.046, 2.35-0.046
			C 697.329,321.655, 716.187,339.799, 717.362,365.8 M 629.315,16.456L 419.57,16.456 c 20.794-36.426, 59.916-61.044, 104.878-61.044
			C 569.388-44.577, 608.509-19.971, 629.315,16.456 M 364.908,102.948c0-3.237, 0.288-6.394, 0.841-9.412c 3.629-21.162, 19.895-36.668, 40.009-36.668
			l 237.416,0 c 22.844,0, 40.781,19.999, 40.781,45.665c0,3.295-0.323,6.486-0.887,9.573c-3.675,21.012-19.907,36.449-39.986,36.449L 405.677,148.556 
			C 382.798,148.556, 364.908,128.534, 364.908,102.948 M 341.971,249.655c-2.419-5.518-3.767-11.52-3.767-17.879c0-25.171, 21.128-45.665, 47.048-45.665
			l 278.196,0 c 22.74,0, 41.725,15.69, 46.115,36.495c 0.703,3.11, 1.106,6.301, 1.106,9.608c0,25.16-21.128,45.654-47.048,45.654L 385.436,277.868 
			C 365.852,277.868, 349.044,266.163, 341.971,249.655 M 629.821,1000.068c-33.028,11.785-68.59,18.236-105.638,18.236
			c-173.526,0-314.703-141.155-314.703-314.634c0-84.568, 34.894-166.81, 95.777-225.838c 14.25-17.476, 23.121-41.887, 26.254-112.044
			c 1.152-25.966, 20.010-44.145, 45.873-44.145c 0.76,0, 1.521,0.046, 2.292,0.069c 12.925,0.576, 24.503,5.783, 32.636,14.642
			c 8.076,8.847, 12.027,20.425, 11.439,33.546c-3.813,85.548-17.522,131.766-50.619,170.565l-1.336,1.405c-44.467,42.417-69.972,101.388-69.972,161.775
			c 0.012,122.584, 99.706,222.301, 222.244,222.301c 18.893,0, 37.417-2.327, 55.238-6.831C 579.652,955.854, 600.065,986.612, 629.821,1000.068
			 M 942.497,918.23c0,21.496-15.045,38.339-34.26,38.339L 830.477,956.568 L 830.477,1034.351 c0,19.204-16.854,34.237-38.339,34.237s-38.316-15.034-38.316-34.237l0-77.783 
			l-42.371,0 l-35.412,0 c-19.192,0-34.237-16.842-34.237-38.339c0-21.485, 15.045-38.316, 34.237-38.316l 77.783,0 l0-77.783 c0-19.181, 16.831-34.226, 38.316-34.226
			c 16.163,0, 29.699,8.502, 35.424,20.897c 1.866,4.078, 2.915,8.571, 2.915,13.317l0,77.783 l 77.772,0 C 927.464,879.914, 942.497,896.733, 942.497,918.23" />
<glyph unicode="&#xe00c;" d="M 536.728,934.865c-140.832,0-257.541-103.645-278.772-238.556l-68.003,64.051l-28.927-30.701l 111.744-105.258l 119.75,95.95l-26.369,32.913   l-64.731-51.863c 22.74,109.083, 119.578,191.29, 235.308,191.29c 76.032,0, 145.97-34.848, 191.912-95.593l 33.638,25.425   C 708.33,893.911, 626.124,934.865, 536.728,934.865zM 971.677,760.348l-66.678-62.842C 890.899,883.439, 733.167,1030.515, 541.152,1030.515c-138.056,0-262.748-75.444-325.428-196.888l 37.751-19.492   C 308.851,921.398, 419.075,988.029, 541.152,988.029c 167.812,0, 306.029-126.835, 321.085-288.242l-66.77,53.487l-26.358-32.913l 119.75-95.95l 111.744,105.258   L 971.677,760.348zM 148.009,409.449A119.301,119.301 180 1 1 386.611,409.44899999999996A119.301,119.301 180 1 1 148.009,409.44899999999996zM 436.239,385.038c-12.119,0-21.923,9.804-21.923,21.934s 9.792,21.911, 21.923,21.911c 12.154,0, 21.934-9.78, 21.934-21.911  c0-5.864-2.2-11.267-6.44-15.517C 447.656,387.388, 442.080,385.038, 436.239,385.038L 436.239,385.038z M 100.95,401.42  c-0.726,0-1.452,0-2.177,0c-11.992,1.336-20.897,11.981-19.734,23.962c0,0.15,0,0.15, 0.138,0.288c 1.187,11.82, 11.405,20.46, 23.846,19.446  c 5.841-0.588, 11.094-3.352, 14.769-7.914c 3.802-4.55, 5.564-10.218, 4.965-16.070C 121.571,409.887, 112.216,401.42, 100.95,401.42L 100.95,401.42z   M 420.584,455.921c-8.479,0-16.22,4.988-19.895,12.603c-2.488,5.449-2.776,11.278-0.737,16.831c 2.051,5.553, 6.152,9.93, 11.416,12.43  c 10.691,4.977, 24.134-0.161, 29.1-10.679c 2.488-5.403, 2.765-11.255, 0.714-16.842c-2.039-5.38-5.979-9.919-11.405-12.246  C 426.874,456.543, 423.809,455.921, 420.584,455.921L 420.584,455.921z M 123.333,470.252c-3.928,0-7.741,1.198-11.105,3.099  c-10.38,6.14-13.893,19.607-7.753,30.113c 5.864,9.93, 20.022,13.605, 29.975,7.753c 10.38-6.152, 13.893-19.607, 7.891-30.125  C 138.252,474.525, 131.075,470.252, 123.333,470.252L 123.333,470.252z M 376.6,513.405c-5.288,0-10.241,1.901-14.181,5.276  c-9.239,7.73-10.391,21.623-2.65,30.839c 7.615,8.916, 22.084,10.092, 30.989,2.638c 9.216-7.741, 10.38-21.623, 2.638-30.839  C 389.169,516.332, 383.017,513.405, 376.6,513.405L 376.6,513.405z M 172.742,523.359c-7.131,0-13.859,3.652-17.971,9.504  c-3.364,4.838-4.677,10.656-3.502,16.37c 1.002,5.864, 4.239,10.829, 9.066,14.17c 9.654,6.601, 23.835,3.986, 30.551-5.668  c 6.866-9.815, 4.251-23.547-5.564-30.424c-0.138-0.127-0.288-0.127-0.438-0.276C 181.244,524.684, 177.166,523.359, 172.742,523.359  L 172.742,523.359z M 312.411,547.194c-1.912,0-3.963,0.3-5.714,0.737c-11.704,3.226-18.72,15.345-15.506,27.049  c 3.064,11.267, 15.345,18.42, 26.899,15.345c 11.704-3.203, 18.559-15.183, 15.494-26.899C 330.97,553.91, 322.191,547.194, 312.411,547.194L 312.411,547.194  z M 239.869,550.673c-10.668,0-19.722,7.764-21.485,18.305c-1.025,5.841, 0.3,11.693, 3.652,16.358c 3.514,4.838, 8.479,7.903, 14.331,8.905  c 1.175,0.288, 2.362,0.288, 3.64,0.288c 10.679,0, 19.745-7.58, 21.496-18.282c 2.039-11.843-5.99-23.236-17.821-25.298  C 242.358,550.845, 241.206,550.673, 239.869,550.673L 239.869,550.673zM 759.295,409.449A119.301,119.301 180 1 1 997.897,409.44899999999996A119.301,119.301 180 1 1 759.295,409.44899999999996zM 1047.594,385.038c-12.154,0-21.957,9.804-21.957,21.934s 9.815,21.911, 21.957,21.911c 12.119,0, 21.888-9.78, 21.888-21.911  S 1059.702,385.038, 1047.594,385.038L 1047.594,385.038z M 712.305,401.42c-0.76,0-1.463,0-2.2,0.138c-5.864,0.449-11.105,3.191-14.769,7.741  c-3.813,4.562-5.553,10.253-5,16.082c 1.187,12.004, 11.555,20.771, 23.985,19.768c 5.841-0.599, 11.128-3.364, 14.769-7.926  c 3.802-4.539, 5.564-10.218, 4.988-15.898C 733.064,409.887, 723.548,401.42, 712.305,401.42L 712.305,401.42z M 1031.939,455.805  c-8.49,0-16.243,4.954-19.907,12.718c-2.477,5.265-2.788,11.278-0.714,16.819c 2.004,5.403, 5.99,9.919, 11.393,12.269  c 10.668,4.965, 24.123,0, 29.088-10.518c 5.138-10.944, 0.426-24.123-10.518-29.226C 1038.205,456.543, 1035.141,455.805, 1031.939,455.805L 1031.939,455.805z   M 734.676,470.252c-3.963,0-7.764,1.198-11.14,3.099c-5.092,3.076-8.628,7.764-10.080,13.455c-1.475,5.656-0.576,11.543, 2.373,16.658  c 5.852,9.93, 19.86,13.605, 29.964,7.753c 10.391-6.152, 13.893-19.722, 7.753-30.125C 749.572,474.525, 742.383,470.252, 734.676,470.252  L 734.676,470.252z M 987.909,513.405c-5.242,0-10.23,1.901-14.181,5.276c-9.204,7.73-10.391,21.623-2.627,30.839  c 7.465,8.767, 21.635,10.092, 30.54,2.926c 0.161,0, 0.288-0.161, 0.449-0.3c 9.228-7.741, 10.38-21.623, 2.5-30.839  C 1000.489,516.332, 994.349,513.405, 987.909,513.405L 987.909,513.405z M 784.074,523.359c-7.154,0-13.87,3.652-17.96,9.504  c-6.889,9.942-4.424,23.697, 5.53,30.54c 9.654,6.612, 23.823,3.963, 30.39-5.53c 6.889-9.953, 4.401-23.697-5.541-30.563  C 792.841,524.822, 788.613,523.359, 784.074,523.359L 784.074,523.359z M 923.743,547.194c-1.901,0-3.997,0.3-5.875,0.737  c-5.564,1.59-10.368,5.253-13.144,10.356c-2.938,4.988-3.663,10.979-2.212,16.692c 3.064,11.393, 15.494,18.559, 26.899,15.345  c 5.702-1.44, 10.38-5.092, 13.306-10.218c 2.938-5.115, 3.64-10.979, 2.051-16.681C 942.278,553.91, 933.523,547.194, 923.743,547.194  L 923.743,547.194z M 851.201,550.673c-10.656,0-19.722,7.764-21.646,18.305c-1.901,11.843, 6.002,23.098, 17.844,25.263l 0.173,0   c 12.131,2.074, 23.247-6.117, 25.263-17.983c 2.074-11.843-6.002-23.236-17.96-25.298C 853.678,550.845, 852.376,550.673, 851.201,550.673L 851.201,550.673z  M 100.466-64l 0.023,168.042l 28.904,0 L 129.393-64 l 289.947,0 L 419.34,104.042 l 28.835,0 L 448.243-64l 98.116,0 L 546.359,139.040 c0,80.652-57.784,126.363-136.777,126.363L 139.185,265.403   c-79.050,0-136.754-45.711-136.754-126.363L 2.431-64 L 100.466-64 zM 704.701-64L 704.701,104.042 l 28.892,0 L 733.594-64 l 289.947,0 L 1023.54,104.042 l 28.858,0 L 1052.433-64l 98.139,0 L 1150.572,139.040 c0,80.652-57.773,126.363-136.788,126.363L 743.374,265.403   c-79.016,0-136.765-45.711-136.765-126.363L 606.609-64 L 704.701-64 z" />
<glyph unicode="&#xe00d;" d="M 875.52,320.261c0-18.801,0-44.709,0-73.221c-0.023-5.507-1.187-10.552-3.583-15.667c-3.571-7.615-10.276-15.322-19.699-21.047    C 842.838,204.577, 831.053,200.96, 817.92,200.96L 357.12,200.96 c-17.476-0.035-32.694,6.509-42.831,15.667c-5.057,4.562-8.801,9.654-11.197,14.734    C 300.707,236.488, 299.543,241.533, 299.52,247.040c0,28.524,0,54.444,0,73.221s0,30.424,0,30.459L 184.32,350.72 c0-0.035,0-11.67,0-30.459c0-18.801,0-44.709,0-73.221    c-0.023-23.005, 5.299-45.181, 14.607-64.846c 13.985-29.56, 36.576-53.568, 63.936-70.26C 290.235,95.252, 322.733,85.76, 357.12,85.76l 460.8,0     c 45.884,0.035, 88.266,16.819, 119.889,45.239c 15.817,14.239, 29.007,31.496, 38.304,51.195C 985.421,201.859, 990.743,224.035, 990.72,247.040    c0,28.524,0,54.444,0,73.221s0,30.424,0,30.459L 875.52,350.72 C 875.52,350.685, 875.52,339.050, 875.52,320.261zM 483.84,258.56l 207.36,0 c 25.448,0, 46.080,20.632, 46.080,46.080s-20.632,46.080-46.080,46.080l-57.6,0 L 633.6,627.2 c 0.012,18.973, 7.672,36.035, 20.344,48.776    c 12.741,12.672, 29.802,20.333, 48.776,20.344l 119.174,0 l-82.621-82.633l 65.157-65.157l 193.87,193.859L 804.43,936.247l-65.157-65.157L 821.871,788.48L 702.72,788.48     c-44.387,0.012-84.925-18.248-113.944-47.336C 559.688,712.125, 541.428,671.587, 541.44,627.2l0-276.48 l-57.6,0 c-25.448,0-46.080-20.632-46.080-46.080S 458.392,258.56, 483.84,258.56z" />
<glyph unicode="&#xe00e;" d="M 1150.376,794.528l-197.96-62.761l 1.705-11.002l-85.617-24.814l 9.354-50.193l-108.852,5.887l-132.1,70.618   c0,0-44.26,17.614-145.866,15.828l-17.683-21.738l-201.439-22.464l 3.652,28.777l-86.93,19.768l 1.083,11.082L 0.795,805.046l0-421.874 l 151.373-13.778   l 1.567,16.013l 79.442,2.316l 4.078,32.21l 17.741-0.668c 6.555-39.41, 51.368-35.309, 51.368-35.309s 6.808,3.79, 14.4,8.916l 7.661-5.898   l-18.213-13.548c-0.76-14.216, 1.336-37.498, 16.819-49.167c 18.132-13.663, 46.437-11.658, 53.326-4.355c 2.35,2.5, 8.675,8.087, 15.46,15.183   l 8.352-6.428l-24.411-28.881c 21.427-45.469, 77.841-34.364, 77.841-34.364l 10.621,13.962l 8.202-6.324l-8.076-10.875   c 10.691-28.397, 43.004-28.927, 57.98-27.533l 11.324-8.721l 1.924-0.737c 12.603-4.861, 25.079-6.52, 36.472-6.186   c 27.026,0.968, 48.131,12.061, 58.095,18.305c 8.617-2.189, 16.808-3.087, 24.434-2.857c 24.791,0.68, 42.659,13.213, 53.28,24.803   c 5.403,5.829, 9.274,11.474, 11.808,15.794c 33.569,4.504, 54.017,17.902, 64.915,32.786c 6.094,8.317, 9.112,16.485, 10.575,23.005   c 24.745,4.677, 41.668,19.342, 51.437,32.982c 11.474,15.84, 14.988,30.482, 15.276,31.553l 1.705,7.073l-16.692,19.469l 65.318,18.524l 14.239-76.389   l 79.442,2.316l 2.5-15.898l 138.828,21.923L 1150.376,794.528z M 211.231,411.903l-51.771-1.509l 41.472,303.794l 47.209-10.737L 211.231,411.903z    M 824.394,376.433c-7.603-8.605-17.775-16.036-33.88-18.144l-107.171,131.616l-22.003-17.914l 110.074-135.164c-0.783-3.375-2.362-7.741-5.645-12.119   c-6.048-8.018-18.109-17.868-46.886-21.635l-75.237,97.862l-22.499-17.28l 75.514-98.208c-2.143-3.064-4.977-6.566-8.479-9.827   c-7.361-6.774-16.854-12.384-30.401-12.81c-5.126-0.161-11.025,0.53-17.706,2.35l-38.903,49.536l-22.314-17.522l 31.784-40.458   c-8.905-4.355-21.623-9.055-35.412-9.366c-7.569-0.219-15.471,0.749-23.593,3.606l-6.474,4.988l 23.754,43.453   c-4.919,47.151-49.398,31.657-49.398,31.657l-26.162-35.228l-7.983,6.129l 29.169,38.396c 9.804,68.867-55.918,52.75-55.918,52.75l-36.127-42.751   l-9.492,7.315c 4.516,8.548, 6.394,17.245, 2.177,24.722c-14.538,25.736-44.26,23.236-59.962,19.757l-14.043,10.806   c 2.385,11.186-11.37,36.783-39.191,40.596c-11.946,1.624-22.268-1.901-30.252-6.532l-30.897,1.14l 27.464,216.76l 179.539,19.999L 447.713,684.8   c0,0, 37.394-81.239, 105.638-21.22l 93.98-47.866l 188.732-220.078C 833.944,390.476, 830.177,383.080, 824.394,376.433z M 950.941,389.485l-53.891,288.899   l 46.506,13.467l 59.132-300.856L 950.941,389.485z" />
<glyph unicode="&#xe00f;" d="M 936.714,273.836c-0.876,3.548-1.348,5.518-1.348,5.518C 876.695,627.016, 699.16,750.234, 699.16,750.234  c-4.712,4.735-11.566,12.753-17.027,22.568c 6.117,5.046, 12.465,13.26-1.59,19.008c0,0, 26.404,18.57, 7.822,24.457  c-4.562,1.452-8.421,2.523-11.681,3.352c 0.576,1.348, 1.198,2.673, 1.935,3.974c 16.093,29.353, 121.709,130.556, 129.047,145.233  c 7.361,14.676-46.921,55.768-49.859,61.62c-2.949,5.875-1.486,20.54-2.949,41.080c-1.486,20.54-32.268,5.864-58.683,5.864  c-26.392,0-41.046-42.532-41.046-42.532s-5.887,10.264-19.054,14.665c-13.202,4.401-36.68,2.938-51.368,4.401  c-14.665,1.463-52.819-1.463-74.811-4.401c-21.992-2.938-57.185-58.706-85.087-67.496c-27.855-8.813-24.929-2.938-38.143-1.463  c-13.179,1.463-13.179-20.54-20.517-29.33c-7.35-8.813, 2.926-13.213-20.54-7.338c-23.478,5.875-38.154-20.54-32.279-24.952  c 5.864-4.378, 71.862-29.33, 129.105-60.146c 20.056-10.806, 32.878-23.558, 40.435-36.392c-10.956,1.578-25.862,1.544-23.316-11.025  c 1.29-6.578, 2.396-9.815, 3.26-11.244c-3.583-2.339-9.527-7.281-8.168-14.181c 1.97-9.78, 9.78-8.813, 9.78-8.813  s-6.843-6.831-2.938-13.674c 1.832-3.214, 8.986-4.7, 16.116-5.38c-32.406-40.827-196.335-267.252-240.549-334.99  c-46.932-71.862-23.466-347.651-13.19-393.132c 10.264-45.481, 60.123-24.918, 161.338-57.231c 101.249-32.268, 252.323-2.949, 281.71-1.44  c 29.318,1.44, 104.129,11.727, 200.932,19.031c 96.826,7.361, 107.078,67.484, 107.078,96.814C 974.949,113.281, 943.615,245.093, 936.714,273.836z   M 698.388,197.608c-28.236-18.040-58.844-27.095-91.86-27.095c-54.156,0-97.183,17.326-129.001,51.967c-21.208,23.086-34.629,50.388-40.539,81.769  l-41.714,0 l 4.931,24.365l 33.788,0 c-0.276,4.539-0.541,9.089-0.541,13.778c0,10.921, 0.899,21.393, 2.431,31.542l-34.698,0 l 4.919,24.365l 35.194,0   c 7.488,25.309, 20.298,47.923, 38.696,67.692c 32.659,34.963, 75.168,52.439, 127.526,52.439c 18.225,0, 36.922-2.707, 56.137-8.122  c 19.192-5.403, 29.952-8.11, 32.244-8.11c 4.769,0, 9.297,1.302, 13.548,3.94c 4.274,2.627, 7.223,6.728, 8.87,12.315l 10.598,0 l 4.677-113.276l-11.589,0   c-6.728,22.476-15.506,40.62-26.323,54.42c-20.701,25.943-48.511,38.903-83.474,38.903c-35.274,0-64.12-13.951-86.55-41.864  c-12.822-15.967-21.842-35.493-27.325-58.337l 160.9,0 l-4.931-24.365L 493.943,373.933 c-1.221-10.287-1.901-21.082-1.901-32.509  c0-4.389, 0.207-8.605, 0.426-12.81l 160.831,0 l-4.931-24.365L 495.222,304.248 c 4.884-28.017, 15.517-51.598, 32.152-70.56  c 23.535-26.842, 53.384-40.262, 89.51-40.262c 26.104,0, 50.135,6.255, 72.138,18.72c 12.66,7.050, 26.508,17.729, 41.622,32.003l 9.343-9.354  C 728.824,220.671, 714.954,208.287, 698.388,197.608z" />
<glyph unicode="&#xe010;" d="M 537.373,510.675c-8.698,30.862, 11.693,59.524, 45.32,63.683l 246.447,30.47c 33.627,4.159, 36.035-4.193, 5.357-18.559    L 608.982,480.666C 578.292,466.3, 546.071,479.802, 537.373,510.675zM 500.544,521.711A70.099,70.099 180 1 1 640.742,521.711A70.099,70.099 180 1 1 500.544,521.711zM 579.214-41.029c-303.172,0-549.815,246.643-549.815,549.815c0,303.172, 246.643,549.827, 549.815,549.827   c 303.16,0, 549.827-246.643, 549.827-549.827C 1129.041,205.614, 882.386-41.029, 579.214-41.029z M 579.214,956.108   c-246.655,0-447.322-200.667-447.322-447.322c0-246.643, 200.667-447.299, 447.322-447.299c 246.643,0, 447.31,200.655, 447.31,447.299   C 1026.524,755.429, 825.857,956.108, 579.214,956.108zM 585.297,869.12L 575.044,792.247L 564.791,869.12  zM 317.226,750.038L 339.299,717.724L 306.973,739.785  zM 306.985,276.957L 339.299,299.030L 317.238,266.716  zM 856.927,739.785L 824.625,717.724L 846.662,750.038  zM 216.276,527.54L 295.119,517.841L 214.318,508.786  zM 579.214,143.89c0,0-6.716,0.104-19.319,0.276c-6.29,0.323-14.089-0.3-23.178,0.852   c-9.135,1.117-19.642,2.396-31.404,3.825c-11.497,2.719-24.388,5.299-38.2,9.009c-6.785,2.281-13.847,4.654-21.162,7.119   c-3.652,1.256-7.442,2.419-11.186,3.836c-3.652,1.647-7.373,3.318-11.151,5.023c-30.735,12.522-63.13,32.498-94.095,59.455   c-30.954,26.922-60.296,61.54-82.621,103.404c-22.429,41.656-38.051,90.374-42.336,142.157c-0.38,6.474-0.76,12.983-1.14,19.503l-0.564,9.827   c 0.046,4.378, 0.242,6.705, 0.357,10.161c 0.265,6.394, 0.541,12.799, 0.806,19.227l 0.461,9.688l 1.417,10.080   c 2.074,13.386, 3.295,27.233, 7.108,40.159l 5,19.745c 1.613,6.624, 4.435,12.879, 6.612,19.354c 18.351,51.494, 48.499,99.648, 87.529,139.277   c 39.606,39.053, 87.794,69.178, 139.277,87.54c 51.322,18.662, 106.456,24.492, 157.444,20.091c 52.163-4.297, 100.823-19.918, 142.479-42.359   c 41.852-22.326, 76.493-51.667, 103.404-82.633c 26.957-30.966, 46.956-63.36, 59.466-94.107c 1.682-3.779, 3.364-7.488, 5.011-11.151   c 1.417-3.756, 2.58-7.523, 3.836-11.186c 2.465-7.327, 4.838-14.388, 7.119-21.174c 3.698-13.812, 6.278-26.703, 8.997-38.2   c 1.428-11.739, 2.696-22.222, 3.813-31.334c 1.175-9.089, 0.541-16.957, 0.852-23.247c 0.184-12.591, 0.276-19.319, 0.276-19.319   s-0.588,6.693-1.67,19.238c-0.772,6.244-0.703,14.031-2.523,22.971c-1.647,8.928-3.537,19.192-5.645,30.689   c-3.306,11.209-6.509,23.731-10.863,37.048c-2.592,6.52-5.276,13.306-8.076,20.333c-1.417,3.502-2.742,7.119-4.32,10.691   c-1.786,3.479-3.606,7.016-5.472,10.61c-13.801,29.215-34.871,59.409-61.713,88.243c-27.037,28.685-61.137,55.331-101.307,75.537   c-40.147,20.218-86.515,33.362-134.819,36.806c-49.34,3.583-99.786-3.433-147.905-20.84c-47.992-17.395-92.771-45.804-129.565-82.356   c-36.588-36.772-64.973-81.573-82.38-129.554c-2.051-6.036-4.781-11.854-6.29-18.029l-4.804-18.42c-3.859-12.211-5-24.48-7.188-36.634   l-1.509-9.124l-0.622-9.619c-0.38-6.428-0.749-12.833-1.129-19.215l-0.484-8.951l 0.403-9.228c 0.253-6.152, 0.507-12.269, 0.76-18.374   c 3.433-48.695, 16.6-95.005, 36.818-135.141c 20.218-40.182, 46.852-74.281, 75.548-101.318c 28.846-26.842, 59.040-47.923, 88.255-61.713   c 3.594-1.855, 7.131-3.675, 10.61-5.472c 3.571-1.578, 7.188-2.903, 10.691-4.32c 7.039-2.799, 13.824-5.495, 20.344-8.076   c 13.317-4.343, 25.839-7.546, 37.048-10.852c 11.474-2.12, 21.715-4.009, 30.632-5.645c 8.928-1.809, 16.796-1.728, 23.028-2.511   C 572.521,144.466, 579.214,143.89, 579.214,143.89z" />
<glyph unicode="&#xe011;" d="M 316.904,628.006A110.385,110.385 180 1 1 537.673,628.006A110.385,110.385 180 1 1 316.904,628.006zM 94.28,456.474c 9.251-17.96, 19.78-34.802, 31.346-50.561l 89.096,8.052c 14.031-13.997, 29.411-26.588, 45.907-37.636l 6.612-86.941  c 32.867-15.517, 67.83-26.185, 103.784-31.668l 56.218,67.38c 0.933,0, 1.82-0.15, 2.753-0.15c 17.891,0, 35.309,1.855, 52.358,4.804l 65.664-56.39  c 17.176,5.898, 34.157,13.052, 50.78,21.612c 16.635,8.571, 32.325,18.236, 47.105,28.835l-7.58,83.831c 14.527,13.628, 27.694,28.593, 39.329,44.824  l 83.773,6.359c 16.381,32.44, 28.017,67.116, 34.479,102.874l-61.816,51.564c 0.3,5.541, 0.829,11.025, 0.829,16.635  c0,18.029-1.866,35.62-4.85,52.796l 53.165,61.955c-6.117,18.57-13.709,36.91-22.959,54.87c-6.993,13.594-14.792,26.496-23.155,38.845l-78.555-7.085  c-17.58,19.918-37.532,37.682-59.731,52.485l-6.094,80.294C 562.591,978.871, 530.565,989.527, 497.549,995.84l-51.552-61.805  c-5.345,0.276-10.61,0.818-16.013,0.818c-22.959,0-45.239-2.753-66.747-7.557L 301.133,980.634c-15.31-5.507-30.493-11.969-45.366-19.607  c-14.884-7.684-28.95-16.289-42.336-25.563l 7.569-83.889c-19.089-18.006-35.77-38.419-49.72-60.803L 86.976,784.356  C 72.979,753.828, 63.037,721.549, 57.6,688.383l 67.553-56.344c0-0.726-0.115-1.417-0.115-2.131c0-22.81, 2.707-44.974, 7.465-66.344l-56.402-65.687  C 81.297,483.914, 87.276,470.067, 94.28,456.474z M 337.985,801.348c 95.731,49.329, 213.35,11.704, 262.656-84.061c 49.329-95.731, 11.681-213.339-84.061-262.656  c-95.731-49.317-213.35-11.681-262.656,84.061C 204.595,634.435, 242.243,752.042, 337.985,801.348zM 808.151,241.142A65.157,65.157 180 1 1 938.465,241.14200000000005A65.157,65.157 180 1 1 808.151,241.14200000000005zM 990.778,428.388l-41.576-22.936c-2.892,1.256-5.656,2.707-8.64,3.871c-12.649,4.931-25.459,8.191-38.327,10.126l-22.752,42.659  c-9.608,0.242-19.319-0.035-29.146-1.071s-19.411-2.742-28.754-4.988l-13.836-47.75c-14.354-5.806-27.89-13.49-40.343-22.798l-47.75,14.538  c-14.227-13.766-26.646-29.411-36.726-46.46l 25.091-45.492c-0.161-0.38-0.38-0.737-0.518-1.117c-4.896-12.568-8.156-25.321-10.115-38.12  l-45.112-24.019c-0.127-8.824, 0.196-17.718, 1.117-26.669c 1.244-11.866, 3.444-23.386, 6.417-34.525l 50.734-14.653  c 4.712-10.725, 10.46-20.886, 17.199-30.528l-15.011-49.236c 14.734-15.575, 31.68-28.927, 50.285-39.652l 45.366,24.998  c 0.507-0.184, 0.956-0.461, 1.475-0.68c 9.838-3.825, 19.791-6.532, 29.848-8.525l 24.031-45.135c 10.702-0.426, 21.554-0.15, 32.532,1.014  c 11.002,1.152, 21.692,3.11, 32.083,5.76l 13.778,47.75c 10.921,4.378, 21.37,9.792, 31.265,16.209l 47.428-14.446c 15.967,14.308, 29.802,30.92, 41.034,49.19  l-22.959,41.61c 1.348,2.995, 2.822,5.852, 4.055,8.963c 3.825,9.907, 6.578,20.010, 8.617,30.102l 42.509,22.648c 0.622,11.52, 0.38,23.247-0.876,35.090  c-0.922,8.963-2.431,17.752-4.401,26.346l-44.732,12.902c-5.391,14.769-12.545,28.777-21.588,41.656l 13.836,45.481  C 1022.918,405.106, 1007.562,417.824, 990.778,428.388z M 885.243,126.656c-63.199-6.612-119.843,39.295-126.432,102.516  c-6.624,63.245, 39.306,119.854, 102.528,126.444c 63.199,6.624, 119.843-39.283, 126.432-102.528C 994.395,189.878, 948.476,133.245, 885.243,126.656z" />
<glyph unicode="&#xe012;" d="M 914.158,238.941L 170.093,238.941L 170.093,729.935L 639.060,729.935L 639.060,779.391L 115.2,779.391L 115.2,189.44L 969.039,189.44L 969.039,520.225L 914.158,520.225  zM 1011.997,752.641L 979.177,630.184L 924.998,684.42L 630.996,390.406L 521.038,500.399L 332.571,311.909L 288.518,356.054L 521.038,588.712L 630.996,478.742L 880.854,728.53L 821.745,787.662L 1036.812,845.262  z" />
<glyph unicode="&#xe013;" d="M 542.454,1088c 22.36,0, 44.721,0, 67.092,0c 109.175-8.398, 194.204-40.919, 268.347-84.338   c-59.869-33.777-140.832-106.272-97.759-197.441c 11.37-24.054, 36.058-45.965, 63.256-57.496c 33.005-13.997, 69.166-11.105, 78.589-40.262   c 8.525-26.381-6.774-49.363-19.169-61.332c-19.953,6.877-25.943,27.729-42.163,38.339c-25.379-5.311-54.697-12.603-86.262-19.169   c-28.812-5.99-63.579-6.958-88.163-17.257c-14.63-6.129-30.885-28.973-47.923-45.999c-95.8-95.812-184.965-179.217-281.768-276.019   c-10.080-10.080-45.827-41.921-45.999-45.999c-0.196-4.585, 24.653-24.664, 30.666-30.666c 70.56-70.56, 140.648-144.3, 208.927-214.687   C 676.765,156.297, 799.119,281.22, 923.892,403.712c 4.827,26.047, 11.22,56.356, 17.257,88.163c 5.748,30.355, 18.789,65.157, 17.245,88.174   c-1.198,17.983-22.867,23.466-30.666,38.339c 39.329,33.661, 42.739,114.267-3.836,143.758c-40.147,25.425-100.8,20.713-114.993,69.005   c-12.361,42.002, 13.271,88.428, 45.999,107.343c 16.831,9.734, 57.519,23.996, 82.414,19.169c 23.731-4.608, 67.565-60.515, 82.414-78.589   C 1093.386,789.494, 1142.922,680.745, 1152,530.213c0-12.142,0-24.284,0-36.426c-9.988-170.254-77.265-297.688-168.687-389.1   S 764.467-54.012, 594.213-64c-12.142,0-24.284,0-36.426,0c-167.812,9.999-295.119,74.696-385.275,164.851C 82.23,191.122, 12.684,313.107,0,478.454   c0,22.36,0,44.732,0,67.092c 9.988,153.861, 81.953,290.799, 168.676,375.69C 261.078,1011.68, 384.111,1075.19, 542.454,1088zM 835.718,604.966c 29.318,6.843, 49.766-9.204, 51.759-34.502   c 5.541-70.353-101.71-50.158-80.502,11.497C 809.868,590.371, 818.68,600.98, 835.718,604.966z" />
<glyph unicode="&#xe014;" d="M 851.075,933.194A76.308,76.308 180 1 1 1003.692,933.194A76.308,76.308 180 1 1 851.075,933.194zM 837.17,117.025c0-23.616, 19.181-42.785, 42.785-42.785c 23.651,0, 42.797,19.169, 42.797,42.785l 0.046,358.894l 19.043,0    l-0.127-358.894c0-23.616, 19.158-42.785, 42.785-42.785c 23.616,0, 42.762,19.169, 42.762,42.785l 0.184,618.751l 18.778,0 l0-228.027    c0-45.861, 59.835-45.861, 59.708,0L 1105.932,740.637 c0,50.676-29.768,100.339-89.073,100.339l-171.026,0.069c-54.029,0-87.886-44.052-87.886-99.014l0-234.282    c0-45.539, 60.169-45.539, 60.169,0L 818.116,735.764 l 19.146,0 L 837.17,117.025zM 493.955,933.194A76.308,76.308 180 1 1 646.572,933.194A76.308,76.308 180 1 1 493.955,933.194zM 480.050,117.025c0-23.616, 19.181-42.785, 42.785-42.785c 23.651,0, 42.797,19.169, 42.797,42.785l 0.046,358.894l 19.043,0    l-0.127-358.894c0-23.616, 19.158-42.785, 42.785-42.785c 23.616,0, 42.762,19.169, 42.762,42.785l 0.184,618.751l 18.778,0 l0-228.027    c0-45.861, 59.835-45.861, 59.708,0L 748.812,740.637 c0,50.676-29.768,100.339-89.073,100.339l-171.026,0.069c-54.029,0-87.886-44.052-87.886-99.014l0-234.282    c0-45.539, 60.169-45.539, 60.169,0L 460.996,735.764 l 19.146,0 L 480.050,117.025zM 136.835,933.194A76.308,76.308 180 1 1 289.452,933.194A76.308,76.308 180 1 1 136.835,933.194zM 122.93,117.025c0-23.616, 19.181-42.785, 42.774-42.785c 23.662,0, 42.797,19.169, 42.797,42.785l 0.035,358.894l 19.054,0    l-0.115-358.894c0-23.616, 19.158-42.785, 42.774-42.785c 23.616,0, 42.762,19.169, 42.762,42.785l 0.184,618.751l 18.766,0 l0-228.027    c0-45.861, 59.835-45.861, 59.708,0L 391.668,740.637 c0,50.676-29.768,100.339-89.073,100.339l-171.037,0.069c-54.029,0-87.875-44.052-87.875-99.014l0-234.282    c0-45.539, 60.169-45.539, 60.169,0L 103.853,735.764 l 19.158,0 L 122.93,117.025z" />
<glyph unicode="&#xe015;" d="M 916.001,224.472c-45.804,0-84.165-31.415-95.028-73.82L 468.058,150.652 c-8.029,31.369-31.116,56.632-61.16,67.692l 60.987,123.448l 495.279,0   l 112.758,413.142l-811.561,98.588l-62.842,58.959c 6.221,17.165, 5.103,36.806-5.207,53.58c-18.006,29.169-56.229,38.212-85.352,20.298  c-29.134-18.017-38.269-56.229-20.252-85.352c 16.347-26.634, 49.548-36.23, 77.38-24.111l 67.277-63.118l 103.046-471.986l 75.030,0 l-58.844-119.105  c-45.412-8.628-79.753-48.499-79.753-96.434c0-54.179, 43.937-98.162, 98.162-98.162c 45.792,0, 84.154,31.404, 95.028,73.763l 352.915,0   c 10.863-42.371, 49.236-73.763, 95.028-73.763c 54.225,0, 98.162,43.972, 98.162,98.162C 1014.163,180.489, 970.226,224.472, 916.001,224.472z" />
<glyph unicode="&#xe016;" d="M 740.724,925.395c-29.964,0-32.728-23.178-47.889-39.836c-64.812-82.852-128.218-185.265-295.476-185.265L 144.058,700.294   c-46.898,0.334-106.134-20.436-106.134-126.593c0-141.546, 109.912-136.385, 109.912-136.385L 147.836,437.581 l 37.405,0 l 140.936-232.623  c 13.697-16.439, 38.292-31.484, 61.586-19.146l 85.052,43.292L 352.155,437.581l 45.193,0 c 154.426,0, 213.051-83.889, 279.66-158.826l 0.046,0.104  c0,0, 0.68-0.818, 1.728-2.074c 2.696-3.030, 5.311-6.048, 7.868-9.055c 15.091-17.096, 32.314-47.336, 55.423-46.898  c 24.584,3.122, 31.553,18.248, 31.553,36.15L 773.626,889.096 C 773.626,907.424, 762.036,925.395, 740.724,925.395z M 259.131,514.189l-109.498,0   c-9.573,0-19.158,9.562-19.158,19.158c0,9.573, 9.596,17.81, 19.158,17.81l 109.498,0 c 9.573,0, 17.764-8.248, 17.764-17.81  C 276.895,523.762, 268.692,514.189, 259.131,514.189z M 259.131,593.573l-109.498,0 c-9.573,0-19.158,9.573-19.158,19.135  c0,9.596, 9.596,17.787, 19.158,17.787l 109.498,0 c 9.573,0, 17.764-8.191, 17.764-17.787C 276.895,603.135, 268.692,593.573, 259.131,593.573z   M 683.309,391.063c-86.193,86.17-138.205,108.115-268.197,108.115L 415.112,640.056 c 130.003,0, 183.375,23.27, 268.197,113.599L 683.309,391.063 zM 922.084,719.959c-13.87,13.87-36.311,13.847-50.158,0.023c-13.847-13.847-13.847-36.288,0-50.17  c 25.655-25.667, 39.802-59.8, 39.802-96.1s-14.158-70.479-39.802-96.1c-13.847-13.87-13.847-36.346,0-50.193  c 6.924-6.877, 16.013-10.333, 25.079-10.333s 18.144,3.468, 25.068,10.38c 39.099,39.099, 60.584,91.008, 60.584,146.258  C 982.644,628.951, 961.16,680.872, 922.084,719.959zM 1025.499,803.421c-13.859,13.847-36.288,13.847-50.147,0c-13.836-13.847-13.836-36.3,0-50.147  c 47.969-47.981, 74.35-111.756, 74.35-179.562c0-67.841-26.381-131.581-74.35-179.562c-13.836-13.847-13.836-36.3,0-50.158  c 6.935-6.912, 15.99-10.368, 25.079-10.368c 9.066,0, 18.156,3.468, 25.068,10.368c 61.356,61.402, 95.132,142.94, 95.132,229.72  C 1120.643,660.493, 1086.854,742.031, 1025.499,803.421z" />
<glyph unicode="&#xe017;" d="M 645.12,569.6l-77.645,38.822l 403.2,201.6L 990.72,800l0,57.6 L 529.92,627.2l-77.645,38.822l 403.2,201.6L 875.52,857.6l0,57.6 L 414.72,684.8l-77.645,38.822l 403.2,201.6L 760.32,915.2l0,57.6 L 299.52,742.4l-77.645,38.822  l 403.2,201.6L 645.12,972.8L 645.12,1030.4 L 184.32,800l-80.64,40.32L 506.88,1041.92l 23.040-11.52L 529.92,1088 L 69.12,857.6l0-633.6 l 576-288l 460.8,230.4L 1105.92,800 L 645.12,569.6z M 996.48,483.2L 754.56,362.24l0,28.8 l 241.92,120.96L 996.48,483.2 z M 996.48,552.32L 754.56,431.36  l0,94.349 l 241.92,120.96L 996.48,552.32 z" />
<glyph unicode="&#xe018;" d="M 957.911,835.055c0,128.494-76.608,226.506-205.091,226.506c-76.182,0-161.073-64.42-176.855-141.362 c-15.771,76.954-100.662,141.362-176.832,141.362c-128.471,0-205.114-98.012-205.114-226.506c0-80.099, 51.61-152.237, 114.682-197.775 c 131.086-94.729, 161.914-111.491, 267.252-216.806c 105.362,105.327, 136.166,122.089, 267.276,216.806C 906.301,682.819, 957.911,754.957, 957.911,835.055zM 237.174,469.975c0-0.023,0-0.023,0-0.046l-44.26,40.228c-11.566,11.543-27.095,16.428-42.163,15.080 c-11.969-1.037-23.651-5.898-32.786-15.080c-20.724-20.701-20.724-54.271,0-74.949l 50.112-45.492l 78.97-71.643l 50.63-45.919 c 6.889-6.232, 7.407-16.877, 1.198-23.743c-6.278-6.889-16.877-7.361-23.754-1.152L 101.203,405.014c-20.84,15.552-34.376,40.389-34.376,68.383 c0,45.297, 35.389,82.322, 79.983,85.052L 114.463,826.934c0,29.272-23.72,53.015-53.015,53.015s-52.992-23.743-52.992-53.015l0-484.428  c0-17.545, 8.525-33.097, 21.623-42.751l 193.317-173.514c 17.729-16.762, 28.777-40.504, 28.777-66.804L 252.173-0.64 l 0.069,0 l0-0.184  c0-21.082, 17.038-38.143, 38.097-38.143l 146.431,0 c 21.105,0, 38.143,17.050, 38.143,38.143L 474.912-0.64 l0,28.328 L 474.912,196.076 c-0.265,38.523-16.992,73.152-43.442,97.217 L 237.174,469.975zM 1090.575,879.937c-29.295,0-53.073-23.743-53.073-53.015l-32.337-268.497c 44.64-2.719, 79.983-39.756, 79.983-85.052 c0-27.994-13.501-52.831-34.318-68.383L 876.868,247.27c-6.843-6.209-17.51-5.737-23.72,1.152c-6.209,6.866-5.76,17.51, 1.129,23.743l 50.688,45.919 l 78.912,71.643l 50.17,45.492c 20.724,20.678, 20.724,54.248,0,74.949c-9.135,9.181-20.817,14.043-32.786,15.080 c-15.080,1.348-30.597-3.537-42.163-15.080l-44.26-40.228c0,0.023,0,0.023,0,0.046L 720.564,293.304c-26.461-24.077-43.177-58.706-43.442-97.217 l0-168.388 L 677.123-0.64 l0-0.184 c0-21.082, 17.038-38.143, 38.097-38.143l 146.408,0 c 21.128,0, 38.154,17.050, 38.154,38.143L 899.781-0.64 l0,60.077  c0,26.3, 11.14,50.043, 28.846,66.804l 193.271,173.514c 13.144,9.654, 21.669,25.206, 21.669,42.751L 1143.567,826.934  C 1143.567,856.206, 1119.802,879.937, 1090.575,879.937z" />
<glyph unicode="&#xe019;" d="M 847.227,660.988l0,80.663 c0,68.786-55.803,124.566-124.658,124.566l-25.586,0 l0,74.972 c0,20.943-16.98,37.924-37.924,37.924 c-20.92,0-37.97-16.992-37.97-37.924l0-152.675 c0-18.732-15.149-33.869-33.869-33.869c-18.616,0-33.696,15.137-33.696,33.869l0,77.702 l-65.745,0 l0,74.972  c0,20.943-16.98,37.924-37.935,37.924c-21.001,0-37.935-16.992-37.935-37.924l0-152.675 c0-18.732-15.091-33.869-33.857-33.869 c-18.616,0-33.719,15.137-33.719,33.869l0,77.702 l-64.881,0 l0,74.972 c0,20.943-17.038,37.924-37.935,37.924c-20.989,0-37.97-16.992-37.97-37.924l0-152.675  c0-18.732-15.091-33.869-33.8-33.869c-18.685,0-33.765,15.137-33.765,33.869l0,77.702 C 67.231,866.125, 11.52,810.403, 11.52,741.651l0-506.488  C 11.52,166.285, 67.277,110.528, 136.097,110.528l 503.136,0 c 54.893-47.393, 126.374-76.124, 204.618-76.124c 173.042,0, 313.321,140.325, 313.321,313.321 C 1157.172,519.661, 1018.737,659.156, 847.227,660.988z M 566.3,493.038l0,40.355 l-114.371,0 l0-69.673 l 100.858,0 c-4.896-12.292-9.124-24.918-12.442-37.958 l-88.416,0 l0-69.673 l 78.797,0 c-0.069-2.765-0.219-5.53-0.219-8.364c0-9.999, 0.588-19.837, 1.498-29.606l-80.087,0 l0-69.65 l 94.798,0  c 4.355-13.087, 9.446-25.793, 15.437-38.028L 147.571,210.441 c-22.141,0-40.17,17.96-40.17,40.101L 107.401,571.34 l 517.018,0  C 601.194,548.553, 581.576,522.092, 566.3,493.038z M 843.852,139.524c-115.062,0-208.282,93.208-208.282,208.224c0,114.993, 93.22,208.236, 208.282,208.236 c 114.947,0, 208.201-93.243, 208.201-208.236C 1052.052,232.732, 958.798,139.524, 843.852,139.524zM 145.083,425.761L 259.453,425.761L 259.453,356.088L 145.083,356.088zM 145.083,318.118L 259.453,318.118L 259.453,248.468L 145.083,248.468zM 297.389,533.393L 413.971,533.393L 413.971,463.72L 297.389,463.72zM 297.389,425.761L 413.971,425.761L 413.971,356.088L 297.389,356.088zM 297.389,318.118L 413.971,318.118L 413.971,248.468L 297.389,248.468zM 870.889,375.050c-1.601,1.59-3.329,2.926-5.161,4.193l 0.173,0.196l-129.577,97.644 c-5.242,5.311-13.836,5.311-19.089,0.035c-5.311-5.311-5.288-13.824, 0.023-19.135l 93.658-124.324l 20.356-80.398 c 2.696-8.571, 6.013-13.548, 13.444-13.49c 7.511-0.058, 10.967,5.126, 13.571,13.49l 22.764,88.404l-0.253,0 c0,0.138,0,0.288, 0.035,0.426 C 883.123,353.6, 879.828,366.076, 870.889,375.050zM 145.083,425.761L 259.453,425.761L 259.453,356.088L 145.083,356.088zM 145.083,318.118L 259.453,318.118L 259.453,248.468L 145.083,248.468zM 297.389,533.393L 413.971,533.393L 413.971,463.72L 297.389,463.72zM 297.389,425.761L 413.971,425.761L 413.971,356.088L 297.389,356.088zM 297.389,318.118L 413.971,318.118L 413.971,248.468L 297.389,248.468zM 843.759,484.836c 11.739,0.023, 21.162,9.412, 21.116,21.128c0,11.681-9.481,21.047-21.024,21.024 c-11.762-0.023-21.162-9.4-21.151-21.024C 822.689,494.259, 832.090,484.721, 843.759,484.836zM 145.083,425.761L 259.453,425.761L 259.453,356.088L 145.083,356.088zM 145.083,318.118L 259.453,318.118L 259.453,248.468L 145.083,248.468zM 297.389,533.393L 413.971,533.393L 413.971,463.72L 297.389,463.72zM 297.389,425.761L 413.971,425.761L 413.971,356.088L 297.389,356.088zM 297.389,318.118L 413.971,318.118L 413.971,248.468L 297.389,248.468zM 979.177,349.222c0-11.704, 9.492-21.059, 21.116-21.116c 11.635,0.058, 21.116,9.527, 21.070,21.185 c 0.023,11.578-9.389,21.070-21.070,21.036C 988.577,370.419, 979.223,360.904, 979.177,349.222zM 145.083,425.761L 259.453,425.761L 259.453,356.088L 145.083,356.088zM 145.083,318.118L 259.453,318.118L 259.453,248.468L 145.083,248.468zM 297.389,533.393L 413.971,533.393L 413.971,463.72L 297.389,463.72zM 297.389,425.761L 413.971,425.761L 413.971,356.088L 297.389,356.088zM 297.389,318.118L 413.971,318.118L 413.971,248.468L 297.389,248.468zM 843.852,214.104c-11.693,0-21.070-9.423-21.151-21.024c 0.035-11.716, 9.412-21.128, 21.105-21.22 c 11.693,0.035, 21.116,9.539, 21.116,21.174C 864.922,204.669, 855.498,214.104, 843.852,214.104zM 145.083,425.761L 259.453,425.761L 259.453,356.088L 145.083,356.088zM 145.083,318.118L 259.453,318.118L 259.453,248.468L 145.083,248.468zM 297.389,533.393L 413.971,533.393L 413.971,463.72L 297.389,463.72zM 297.389,425.761L 413.971,425.761L 413.971,356.088L 297.389,356.088zM 297.389,318.118L 413.971,318.118L 413.971,248.468L 297.389,248.468zM 687.226,370.281c-11.647,0.023-21.151-9.377-21.128-21.059c0-11.704, 9.458-21.116, 21.128-21.162 c 11.681,0.046, 21.070,9.55, 21.139,21.162C 708.342,360.904, 698.861,370.304, 687.226,370.281zM 145.083,425.761L 259.453,425.761L 259.453,356.088L 145.083,356.088zM 145.083,318.118L 259.453,318.118L 259.453,248.468L 145.083,248.468zM 297.389,533.393L 413.971,533.393L 413.971,463.72L 297.389,463.72zM 297.389,425.761L 413.971,425.761L 413.971,356.088L 297.389,356.088zM 297.389,318.118L 413.971,318.118L 413.971,248.468L 297.389,248.468z" />
<glyph unicode="&#xe01a;" d="M 599.063,867.772c-0.449-9.078, 12.626-19.549, 29.18-23.409c 16.6-3.848, 30.378,0.415, 30.828,9.481  c 0.449,9.089-12.603,19.549-29.18,23.397C 613.325,881.112, 599.512,876.861, 599.063,867.772L 599.063,867.772z M 467.297,818.939  c0,20.091, 13.098,38.2, 34.111,50.988c-35.597-17.268-64.259-46.633-80.64-82.748c 13.571,1.728, 26.934-12.015, 28.236-41.149  c-0.899-80.248-63.625-117.619-25.805-153.596c 27.694-27.66, 36.334-44.214, 36.334-62.796c-23.224,17.119-32.532,25.667-46.932,37.302  c0-96.445, 93.784-192.211, 117.251-193.409c 5.783-0.265, 85.789-0.265, 91.549,0c 23.466,1.198, 117.228,96.964, 117.228,193.409  c-14.377-11.635-23.697-20.183-46.909-37.302c0,18.582, 8.64,35.136, 36.311,62.796c 37.82,35.977-24.883,73.359-25.805,153.596  c 1.348,29.134, 14.688,42.889, 28.259,41.149c-15.886,35.032-43.338,63.706-77.472,81.147c 19.526-12.66, 31.588-30.113, 31.588-49.386  c0-38.696-48.649-70.076-108.657-70.076C 515.923,748.863, 467.297,780.243, 467.297,818.939L 467.297,818.939z M 729.181,337.357  c 23.328-10.932, 52.474-45.723, 58.522-64.95c 13.974-3.744, 34.79-9.734, 65.030-18.847c 147.583-44.375, 177.12-103.45, 177.12-103.45  s-13.006-6.474-60.687,23.040c-47.658,29.514-57.393,46.034-80.433,54.156c-23.017,8.122-59.017,17.637-65.526,19.503  c-4.7,1.348-24.123,11.935-34.514,17.683c-2.362-14.723-36.991,0.495-63.118,9.354c-3.145,1.060-6.232,2.339-9.228,3.709  c-15.702-57.623-37.302-90.34-69.477-106.721c-21.105-11.762, 3.779,34.284, 25.586,66.47c 25.609,43.062, 52.808,8.479, 53.096,223.465  c-0.922-1.544-1.866-3.041-2.834-4.504c-15.702-23.639-34.514-45.423-52.543-62.68c-49.859-89.983-58.188-110.811-92.863-112.815l-1.889-0.046  l-1.532,0.046c-34.652,2.004-42.97,22.833-92.84,112.815c-18.017,17.257-36.806,39.053-52.543,62.68c-0.968,1.463-1.912,2.961-2.857,4.504  c 0.334-214.986, 27.521-180.403, 53.119-223.465c 21.807-32.187, 46.691-78.232, 25.586-66.47c-45.988,23.409-70.399,80.237-86.803,195.391  c-71.528-11.866-95.305-60.25-95.305-60.25C 180.991,281.577, 59.651,296.415, 36.242,99.215L 3.583,99.215 c 4.908,32.878-16.623,190.368, 306.697,223.338  c 15.034,17.994, 45.492,64.984, 103.277,74.442c-1.486,12.234-2.88,25.010-4.251,38.396c-1.82,18.132-7.016,79.258-11.589,134.669  c-1.67-0.357-3.398-0.541-5.103-0.541c-25.183,0-45.585,38.2-45.585,85.329c0,47.117, 20.402,85.317, 45.585,85.317  c 1.037,7.615, 2.223,14.999, 3.756,21.681c 19.999,80.283, 92.563,139.772, 179.032,139.772c 86.941,0, 159.506-59.489, 179.505-139.772  c 1.532-6.682, 2.719-14.066, 3.756-21.681c 25.183,0, 45.585-38.2, 45.585-85.317c0-47.128-20.402-85.329-45.585-85.329  c-1.728,0-3.468,0.184-5.126,0.541c-4.55-55.411-9.746-116.536-11.589-134.669c-1.348-13.386-2.765-26.208-4.228-38.442  c 57.531-9.596, 87.909-56.436, 102.92-74.396c 323.32-32.959, 301.789-190.449, 306.697-223.338L 1114.675,99.215 c-23.42,197.199-144.737,182.362-286.065,206.772  c0,0-23.674,48.223-94.948,60.215C 732.223,356.146, 730.714,346.515, 729.181,337.357L 729.181,337.357z M 517.72,468.984  c 0.703,10.932, 9.769,19.596, 20.874,19.596l 74.615,0 c 11.094,0, 20.183-8.663, 20.874-19.596L 517.72,468.984 L 517.72,468.984z M 703.549,646.323  c0-18.812-5.311-34.929-55.377-34.929c-25.713,0-40.274-1.82-40.274,17.983L 703.549,646.323L 703.549,646.323z M 447.345,646.323l 95.651-16.946  c0-19.803-14.584-17.983-40.297-17.983C 452.655,611.395, 447.345,627.511, 447.345,646.323L 447.345,646.323z M 157.271,179.648  c-17.211,14.815, 24.906,50.642, 115.085,68.786c 62.577,12.614, 103.922,30.655, 104.717,29.042c 0.311-0.726-7.223-5.253-24.25-15.794  c-55.803-34.376-29.56-47.647-108.334-70.675C 162.674,167.137, 157.271,179.648, 157.271,179.648L 157.271,179.648z" />
<glyph unicode="&#xe01b;" d="M 1046.88,591.914c0-185.702-208.558-336.246-465.846-336.246c-5.541,0-11.071,0.069-16.566,0.219   C 545.495,256.371, 376.9,80.795, 358.56,82.88c-25.759,2.915, 99.072,184.205, 74.892,190.022C 248.509,317.45, 115.2,443.444, 115.2,591.914   c0,185.702, 208.558,336.246, 465.846,336.246S 1046.88,777.628, 1046.88,591.914z M 725.76,443.94l0,156.096 C 725.76,608.561, 715.83,615.68, 707.282,615.68L 691.2,615.68 l0,65.94    c0,57.612-46.080,104.325-103.68,104.325c-57.623,0-103.68-46.714-103.68-104.325L 483.84,615.68 l-16.082,0 C 459.21,615.68, 449.28,608.561, 449.28,600.036l0-156.096 C 449.28,435.404, 459.21,431.36, 467.758,431.36   l 239.535,0 C 715.83,431.36, 725.76,435.404, 725.76,443.94z M 645.12,678.533L 645.12,615.68 L 529.92,615.68 l0,62.853 c0,30.482, 27.118,55.204, 57.6,55.204S 645.12,709.027, 645.12,678.533L 645.12,678.533z" />
<glyph unicode="&#xe01c;" d="M 1120.009,951.995L 31.98,951.995 C 14.319,951.995,0,937.664,0,920.004l0-816.019 c0-17.66, 14.319-31.98, 31.98-31.98l 1088.018,0     c 17.66,0, 31.991,14.319, 31.991,31.98L 1151.988,920.004 C 1152,937.664, 1137.669,951.995, 1120.009,951.995z M 1088.029,888.036l0-77.518 L 497.364,810.518     c-3.594,0-6.659,3.064-6.659,6.659L 490.706,829.146 c0,10.31-4.032,19.999-11.37,27.314c-7.327,7.269-16.819,11.75-27.325,11.255L 289.382,867.196    c-21.277-0.092-38.604-17.464-38.604-38.742l0-11.958 c0-2.35-1.21-3.94-1.947-4.643c-0.726-0.737-2.304-1.958-4.643-1.958l-0.023,0     L 63.971,810.414l0,77.61 L 1088.029,888.024 z M 63.971,767.836l0,10.598 l 180.115-0.541c 0.046,0, 0.069,0, 0.115,0c 10.264,0, 19.93,4.009, 27.222,11.29    c 7.338,7.304, 11.359,17.004, 11.359,27.302L 282.781,828.454 c0,3.64, 3.076,6.739, 6.705,6.751l 162.628,0.541l0,0c 2.35,0, 3.917-1.221, 4.643-1.935    c 0.726-0.714, 1.947-2.304, 1.947-4.654l0-11.969 c0-21.324, 17.349-38.65, 38.65-38.65l 590.665,0 l0-10.691 L 63.971,767.848 z M 63.971,735.868l 134.162,0 l0-599.892     L 63.971,135.976 L 63.971,735.868 z M 230.135,135.964L 230.135,735.868 l 857.906,0 l0-599.892 L 230.135,135.976 zM 76.838,851.805A22.66,22.66 180 1 1 122.158,851.8050000000001A22.66,22.66 180 1 1 76.838,851.8050000000001zM 134.162,851.805A22.66,22.66 180 1 1 179.482,851.8050000000001A22.66,22.66 180 1 1 134.162,851.8050000000001zM 191.474,851.805A22.66,22.66 180 1 1 236.794,851.8050000000001A22.66,22.66 180 1 1 191.474,851.8050000000001z" />
<glyph unicode="&#xe01d;" d="M 1030.637,653.719l 0.104,0.253c0,0-77.196,105.696-199.4,99.59L 831.341,753.839 c-125.43,172.454-222.117,20.92-222.117,20.92l 0.161,0.311  c-9.688,5.368-21.105,8.502-33.27,8.502c-12.108,0-23.42-3.064-33.085-8.375l 0.242-0.438c0,0-96.676,151.569-222.106-20.92l0-0.276   C 198.95,759.668, 121.766,653.972, 121.766,653.972C 47.497,608.803, -2.085,527.126, -2.085,433.894c0-142.168, 115.223-257.391, 257.403-257.391  c 129.059,0, 235.953,94.994, 254.511,218.926c0,0, 19.354-25.978, 62.254-25.978c 42.889,0, 70.111,25.54, 70.111,25.54  c 18.766-123.69, 125.568-218.488, 254.488-218.488c 142.157,0, 257.38,115.223, 257.38,257.391C 1154.051,526.964, 1104.641,608.503, 1030.637,653.719z M 247.473,249.678  c-97.413,0-176.348,78.947-176.348,176.348s 78.947,176.36, 176.348,176.36s 176.36-78.958, 176.36-176.36S 344.886,249.678, 247.473,249.678z   M 576.115,443.871c-35.366,0-64.017,28.662-64.017,64.028c0,35.355, 28.65,64.017, 64.017,64.017c 35.378,0, 64.028-28.662, 64.028-64.017  C 640.143,472.532, 611.447,443.871, 576.115,443.871z M 896.659,249.678c-97.413,0-176.36,78.947-176.36,176.348s 78.958,176.36, 176.36,176.36  s 176.406-78.958, 176.406-176.36S 994.072,249.678, 896.659,249.678zM 141.281,440.668c-5.599,14.78-8.859,29.871-10.426,44.893c-17.971-31.68-22.268-70.825-8.387-107.551  c 24.814-65.572, 98.035-98.611, 163.619-73.843c 13.732,5.207, 25.908,12.591, 36.564,21.531C 245.318,319.558, 170.070,364.44, 141.281,440.668zM 804.96,440.668c-5.599,14.78-8.87,29.871-10.437,44.893c-17.96-31.68-22.257-70.825-8.375-107.551  c 24.803-65.572, 98.081-98.611, 163.619-73.843c 13.72,5.207, 25.92,12.591, 36.576,21.531C 909.009,319.558, 833.772,364.44, 804.96,440.668z" />
<glyph unicode="&#xe01e;" d="M 1073.802,1088L 78.186,1088 C 34.998,1088,0,1053.002,0,1009.814l0-995.616 C0-28.991, 34.998-64, 78.186-64l 995.616,0 c 43.188,0, 78.198,35.009, 78.198,78.198   L 1152,1009.814 C 1152,1053.002, 1116.991,1088, 1073.802,1088z M 883.169,664.191l 80.928,80.905c 3.813,3.825, 8.997,5.979, 14.412,5.979l 37.002,0    c 7.246,13.363, 21.393,22.452, 37.682,22.452c 23.651,0, 42.82-19.181, 42.82-42.831c0-23.651-19.169-42.831-42.82-42.831   c-16.278,0-30.447,9.078-37.682,22.452l-28.558,0 l-80.905-80.916c-3.825-3.825-9.009-5.979-14.412-5.979l-34.249,0 l0-91.4 l 25.782,0 l 80.928,80.905   c 3.813,3.825, 8.997,5.979, 14.412,5.979l 36.991,0 c 7.246,13.363, 21.404,22.452, 37.682,22.452c 23.651,0, 42.82-19.181, 42.82-42.843   c0-23.651-19.169-42.82-42.82-42.82c-16.278,0-30.436,9.078-37.682,22.452l-28.558,0 l-80.905-80.916c-3.825-3.825-9.009-5.967-14.412-5.967   l-34.249,0 l0-91.411 l 25.782,0 l 80.928,80.905c 3.813,3.825, 8.997,5.99, 14.412,5.99l 36.991,0 c 7.246,13.352, 21.404,22.441, 37.682,22.441   c 23.651,0, 42.82-19.169, 42.82-42.843c0-23.651-19.169-42.82-42.82-42.82c-16.278,0-30.436,9.066-37.682,22.429l-28.558,0 l-80.905-80.905   c-3.825-3.825-9.009-5.967-14.412-5.967l-34.249,0 l0-91.411 l 25.782,0 l 80.928,80.916c 3.813,3.825, 8.997,5.967, 14.412,5.967l 36.991,0    c 7.246,13.375, 21.404,22.441, 37.682,22.441c 23.651,0, 42.82-19.169, 42.82-42.82c0-23.674-19.169-42.843-42.82-42.843   c-16.278,0-30.436,9.089-37.682,22.441l-28.558,0 l-80.905-80.905c-3.825-3.825-9.009-5.967-14.412-5.967l-49.928,0 l0-30.286 l 80.905-80.916   c 3.825-3.813, 5.979-8.997, 5.979-14.4l0-36.772 c 13.628-7.165, 22.936-21.45, 22.936-37.912c0-23.662-19.169-42.831-42.843-42.831   c-23.651,0-42.82,19.169-42.82,42.831c0,16.082, 8.859,30.056, 21.957,37.382l0,28.846 l-80.905,80.928c-3.825,3.813-5.99,8.997-5.99,14.4l0,42.417    l-90.916,0 l0-33.961 l 80.916-80.916c 3.825-3.813, 5.979-8.997, 5.979-14.4l0-37.014 c 13.352-7.246, 22.441-21.404, 22.441-37.682   c0-23.662-19.169-42.831-42.843-42.831c-23.651,0-42.82,19.169-42.82,42.831c0,16.266, 9.066,30.436, 22.441,37.682l0,28.547 l-80.916,80.928   c-3.825,3.813-5.967,8.997-5.967,14.4l0,42.417 l-91.4,0 l0-33.961 l 80.905-80.916c 3.825-3.813, 5.979-8.997, 5.979-14.4l0-37.014    c 13.363-7.246, 22.429-21.404, 22.429-37.682c0-23.662-19.169-42.831-42.82-42.831c-23.662,0-42.831,19.169-42.831,42.831   c0,16.266, 9.078,30.436, 22.452,37.682l0,28.558 l-80.928,80.928c-3.825,3.813-5.979,8.997-5.979,14.4l0,42.417 l-91.388,0 l0-33.961 l 80.905-80.916   c 3.825-3.813, 5.967-8.997, 5.967-14.4l0-37.002 c 13.375-7.258, 22.452-21.416, 22.452-37.682c0-23.662-19.181-42.831-42.831-42.831   s-42.843,19.169-42.843,42.831c0,16.266, 9.089,30.436, 22.452,37.682l0,28.547 l-80.916,80.928c-3.802,3.813-5.967,8.997-5.967,14.4l0,42.417 l-91.4,0    l0-33.961 l 80.905-80.916c 3.813-3.813, 5.967-8.997, 5.967-14.4l0-37.002 c 13.375-7.258, 22.464-21.416, 22.464-37.682c0-23.662-19.192-42.831-42.843-42.831   s-42.843,19.169-42.843,42.831c0,16.266, 9.089,30.436, 22.452,37.682l0,28.547 l-80.905,80.928c-3.813,3.813-5.967,8.997-5.967,14.4l0,40.596    l-22.326,0 l-80.905-80.916c-3.825-3.825-9.009-5.979-14.412-5.979l-36.76,0 c-7.177-13.628-21.439-22.936-37.924-22.936   c-23.651,0-42.831,19.181-42.831,42.831c0,23.662, 19.181,42.843, 42.831,42.843c 16.082,0, 30.056-8.87, 37.382-21.957l 28.858,0 l 80.916,80.905   c 3.825,3.825, 8.997,5.979, 14.412,5.979l 52.577,0 l0,90.916 l-44.145,0 l-80.905-80.905c-3.825-3.825-9.009-5.979-14.412-5.979l-37.002,0    c-7.246-13.363-21.404-22.452-37.682-22.452c-23.651,0-42.831,19.181-42.831,42.843c0,23.651, 19.181,42.831, 42.831,42.831   c 16.289,0, 30.447-9.078, 37.682-22.452l 28.558,0 l 80.916,80.916c 3.825,3.813, 8.997,5.967, 14.412,5.967l 52.577,0 l0,91.411 l-44.145,0 l-80.905-80.905   c-3.825-3.825-9.009-5.979-14.412-5.979l-37.002,0 c-7.246-13.363-21.393-22.452-37.682-22.452c-23.651,0-42.831,19.192-42.831,42.843   s 19.181,42.843, 42.831,42.843c 16.278,0, 30.447-9.089, 37.682-22.464l 28.558,0 l 80.916,80.916c 3.825,3.813, 8.997,5.967, 14.412,5.967l 52.577,0 l0,91.4    l-44.145,0 l-80.905-80.905c-3.825-3.825-9.009-5.979-14.412-5.979l-37.002,0 c-7.246-13.363-21.393-22.452-37.682-22.452   c-23.651,0-42.831,19.192-42.831,42.831c0,23.651, 19.181,42.843, 42.831,42.843c 16.278,0, 30.447-9.089, 37.682-22.464l 28.558,0 l 80.916,80.928   c 3.825,3.825, 8.997,5.967, 14.412,5.967l 52.577,0 l0,91.4 l-44.145,0 l-80.905-80.916c-3.825-3.813-9.009-5.967-14.412-5.967l-37.002,0    c-7.246-13.375-21.393-22.464-37.682-22.464c-23.651,0-42.831,19.192-42.831,42.843c0,23.651, 19.181,42.831, 42.831,42.831   c 16.278,0, 30.447-9.089, 37.682-22.452l 28.558,0 l 80.916,80.893c 3.825,3.825, 8.997,5.979, 14.412,5.979l 49.916,0 l0,30.286 l-80.905,80.905   c-3.825,3.825-5.967,9.020-5.967,14.423l0,36.76 c-13.64,7.165-22.936,21.439-22.936,37.912c0,23.651, 19.169,42.831, 42.831,42.831   s 42.82-19.181, 42.82-42.831c0-16.070-8.87-30.056-21.946-37.382l0-28.846 l 80.905-80.916c 3.813-3.825, 5.967-9.009, 5.967-14.412l0-43.062 l 90.916,0    l0,34.606 l-80.905,80.905c-3.813,3.825-5.967,9.020-5.967,14.423l0,36.979 c-13.375,7.246-22.441,21.416-22.441,37.682   c0,23.651, 19.169,42.831, 42.82,42.831c 23.662,0, 42.843-19.181, 42.843-42.831c0-16.278-9.089-30.424-22.441-37.682l0-28.547 l 80.905-80.916   c 3.825-3.825, 5.967-9.009, 5.967-14.412l0-43.062 l 91.4,0 l0,34.606 l-80.905,80.905c-3.813,3.825-5.967,9.020-5.967,14.423l0,36.979    c-13.375,7.246-22.464,21.416-22.464,37.682c0,23.651, 19.192,42.831, 42.843,42.831s 42.843-19.181, 42.843-42.831c0-16.278-9.089-30.424-22.452-37.682   l0-28.547 l 80.916-80.916c 3.825-3.825, 5.967-9.009, 5.967-14.412l0-43.062 l 91.411,0 l0,34.606 l-80.905,80.905c-3.825,3.825-5.979,9.020-5.979,14.423   l0,36.979 c-13.375,7.246-22.452,21.416-22.452,37.682c0,23.651, 19.181,42.831, 42.831,42.831c 23.662,0, 42.843-19.181, 42.843-42.831   c0-16.278-9.089-30.424-22.452-37.682l0-28.547 l 80.905-80.916c 3.825-3.825, 5.979-9.009, 5.979-14.412l0-43.062 l 91.411,0 l0,34.606 l-80.905,80.905   c-3.825,3.825-5.979,9.020-5.979,14.423l0,36.979 c-13.375,7.246-22.452,21.416-22.452,37.682c0,23.651, 19.169,42.831, 42.843,42.831   c 23.651,0, 42.82-19.181, 42.82-42.831c0-16.278-9.066-30.424-22.441-37.682l0-28.547 l 80.905-80.916c 3.825-3.825, 5.979-9.009, 5.979-14.412l0-40.596    l 22.303,0 l 80.928,80.916c 3.813,3.825, 8.997,5.979, 14.412,5.979l 36.76,0 c 7.154,13.628, 21.427,22.936, 37.912,22.936   c 23.651,0, 42.82-19.181, 42.82-42.843c0-23.651-19.169-42.82-42.82-42.82c-16.082,0-30.067,8.87-37.394,21.957l-28.846,0 l-80.905-80.905   c-3.825-3.825-9.009-5.979-14.412-5.979l-34.249,0 l0-90.916 L 883.169,664.122 zM 386.15,701.85L 765.838,701.85L 765.838,322.173L 386.15,322.173z" />
<glyph unicode="&#xe01f;" d="M 1038.574,279.273c 19.619,49.409, 26.024,104.797, 15.114,160.911c-30.39,156.165-181.659,258.14-337.859,227.762   c-7.027-1.371-13.951-2.995-20.748-4.838c 2.108-27.855, 0.484-56.172-5-84.326c-21.75-111.756-101.48-200.298-204.077-236.701   c 0.611-3.986, 1.279-7.96, 2.051-11.958c 30.413-156.211, 181.682-258.186, 337.836-227.796c 58.602,11.405, 109.555,39.848, 148.792,79.131L 1152,128.856   L 1038.574,279.273z M 911.059,343.359L 733.363,343.359 l0-68.809 l-99.372,110.546l 99.372,110.592l0-68.82 l 177.696,0 L 911.059,343.359 zM 663.944,583.85c 30.401,156.177-71.597,307.446-227.762,337.824c-18.593,3.617-37.106,5.368-55.365,5.368   c-135.118-0.012-255.732-95.535-282.493-233.107c-10.921-56.114-4.527-111.502, 15.103-160.911L0,382.619l 177.327,52.577   c 39.237-39.283, 90.179-67.726, 148.792-79.131c 18.582-3.606, 37.071-5.357, 55.331-5.357C 516.545,350.708, 637.16,446.255, 663.944,583.85z    M 418.694,528.312L 418.694,597.133 L 240.998,597.133 l0,83.508 l 177.696,0 l 0.012,68.809l 99.36-110.557L 418.694,528.312z" />
<glyph unicode="&#xe020;" d="M 631.78,1043.475c-1.152,0.115-2.304,0.23-3.456,0.23c-30.643,0-51.84-24.826-51.84-55.457c0-30.182, 11.75-54.72, 57.83-55.354l0-0.173 
	c 218.868-2.995, 410.319-189.953, 410.319-419.42c0-231.31-189.953-422.185-421.263-422.185c-220.769,0-404.041,166.579-420.18,385.436l 97.402,0 
	L 150.267,726.456L0,476.541l 92.16,0 C 108.449,200.084, 339.644-19.706, 621.527-19.706C 914.008-19.706, 1152,219.438, 1152,511.965
	C 1152,800.991, 919.526,1038.003, 631.78,1043.475zM 680.394,785.151c0,26.093-20.955,48.499-46.99,48.499l-10.149,0 c-26.035,0-46.529-22.406-46.529-48.499l0-278.83 L 440.156,369.993
	c-20.16-20.16-19.123-52.877-0.058-72.922c 19.123-20.275, 52.635-20.275, 72.795,0l 150.912,150.912c 1.152,1.267, 2.074,2.534, 3.226,3.686
	c 8.294,8.582, 13.352,20.218, 13.352,33.062L 680.383,785.151 z" />
<glyph unicode="&#xe021;" d="M 437.893,423.587L 292.802,423.587 l-42.478,116.219l-0.23-0.085c-6.439,20.481-25.356,35.457-47.984,35.457c-8.125,0-15.704-2.11-22.506-5.517   l-0.085,0.17C 63.748,511.939,0,382.236,0,204.634c0-27.903, 22.616-50.518, 50.53-50.518l 151.579,0 l0-168.422 c0-27.915, 22.616-50.53, 50.53-50.53   S 303.158-42.209, 303.158-14.318L 303.158,204.634 c0,27.915-22.616,50.53-50.53,50.53L 103.195,255.165 c 6.136,72.625, 27.575,150.973, 84.436,199.551l 51.719-79.876l 0.121,0.061   c 5.542-11.035, 16.831-18.687, 30.013-18.687l 168.422,0 c 18.602,0, 33.675,15.085, 33.675,33.687S 456.495,423.587, 437.893,423.587zM 261.055,608.841A75.789,75.789 180 1 1 412.634,608.847A75.789,75.789 180 1 1 261.055,608.847zM 387.363,255.165L 387.363,154.116L 454.737,154.116L 757.895,154.116L 825.269,154.116L 825.269,255.165 zM 555.785,406.731c0,9.313-7.53,16.843-16.843,16.843c-7.433,0-13.545-4.875-15.776-11.569l-0.206,0.061l-29.843-89.541l-88.91,0   c-9.313,0-16.843-7.53-16.843-16.843s 7.53-16.843, 16.843-16.843l 113.187,0 l 37.519,112.556l-0.206,0.073  C 555.3,403.142, 555.785,404.864, 555.785,406.731zM 808.425,322.526l-88.922,0 l-29.843,89.541l-0.194-0.061c-2.243,6.694-8.343,11.569-15.788,11.569c-9.313,0-16.843-7.53-16.843-16.843  c0-1.867, 0.485-3.589, 1.067-5.263l-0.206-0.073l 37.519-112.556l 113.199,0 c 9.313,0, 16.843,7.53, 16.843,16.843S 817.738,322.526, 808.425,322.526zM 800.009,608.841A75.789,75.789 180 1 1 951.588,608.847A75.789,75.789 180 1 1 800.009,608.847zM 1033.126,569.818l-0.085-0.17c-6.815,3.407-14.406,5.517-22.519,5.517c-22.603,0-41.545-14.964-47.972-35.457l-0.243,0.085  l-42.478-116.219L 774.738,423.587 c-18.602,0-33.675-15.073-33.675-33.675s 15.073-33.687, 33.675-33.687l 168.422,0 c 13.181,0, 24.483,7.652, 30.025,18.687l 0.121-0.061  l 51.731,79.876c 56.848-48.578, 78.287-126.926, 84.423-199.551L 960.004,255.177 c-27.915,0-50.53-22.616-50.53-50.53l0-218.941   c0-27.915, 22.616-50.53, 50.53-50.53s 50.518,22.616, 50.518,50.53L 1010.522,154.116 l 151.579,0 c 27.915,0, 50.53,22.616, 50.53,50.518  C 1212.632,382.236, 1148.884,511.939, 1033.126,569.818zM 606.316,735.148c-97.52,0-176.838,79.33-176.838,176.838S 508.796,1088.837, 606.316,1088.837s 176.838-79.33, 176.838-176.838S 703.836,735.148, 606.316,735.148z   M 606.316,1055.15c-78.93,0-143.163-64.209-143.163-143.151S 527.386,768.835, 606.316,768.835s 143.163,64.221, 143.163,143.163S 685.246,1055.15, 606.316,1055.15zM 690.521,979.36c0,9.313-7.53,16.843-16.843,16.843c-4.681,0-8.876-1.904-11.92-4.96l-38.61-38.598L 623.147,1013.047   c0,9.313-7.53,16.843-16.843,16.843s-16.843-7.543-16.843-16.843l0-101.049 c0-9.313, 7.53-16.843, 16.843-16.843c 4.669,0, 8.876,1.904, 11.92,4.96  l 67.337,67.313C 688.629,970.484, 690.521,974.704, 690.521,979.36z" horiz-adv-x="1212.632" />
<glyph unicode="&#xe022;" d="M 1274.017,359.638l-0.108,0 c 57.207,75.178, 89.287,163.001, 87.416,256.273C 1356.067,884.313, 1072.092,1096.389, 727.129,1089.599    C 382.179,1082.823, 106.851,859.728, 112.123,591.38c 0.095-4.92, 0.285-9.812, 0.583-14.705l 16.873,10.856c-0.068,1.491, 91.062,48.465, 91.062,49.956    c0,195.189, 283.067,382.83, 506.446,382.83c 201.383,0, 546.156-115.512, 546.156-405.341c-0.014-87.579-50.309-175.362-104.683-245.918    c-45.524-70.543, 8.809-229.424, 8.809-229.424l-178.682,95.115c-46.731-14.556-119.049-21.373-138.891-26.97c-23.921-55.96-61.056-87.362-61.056-87.362    c 62.899,4.391, 111.446,15.098, 167.65,32.839l 316.542-136.058C 1282.908,17.209, 1175.718,233.704, 1274.017,359.638z M 432.922,651.487    C 200.787,656.054, 9.704,513.328, 6.153,332.695c-1.26-62.764, 20.357-121.854, 58.82-172.434L 64.905,160.261 c 66.125-84.733-5.99-230.441-5.99-230.441    l 213.012,91.55c 45.904-14.488, 95.792-22.904, 148.066-23.948c 232.135-4.567, 423.218,138.145, 426.782,318.779    C 850.339,496.807, 665.056,646.92, 432.922,651.487z" horiz-adv-x="1355.294" />
<glyph unicode="&#xe023;" d="M 920.529,553.91l 70.572,122.227l-70.572,122.216l-141.12,0 l-60.918-105.512l-102.079,0 l-60.918,105.512L 433.889,798.353 l-60.929,105.523   l-141.12,0 L 161.28,781.66l 70.56-122.227L 353.434,659.433 l 49.87-86.354l-62.358-107.988l 58.084-100.593l-63.775-110.442L 405.815,131.84l 141.12,0 l 59.282,102.655l 131.777,0    l 70.572,122.216l-61.736,106.94l 52.093,90.248L 920.529,553.898 z M 798.889,764.622l 102.171,0 l 51.103-88.497l-51.103-88.485l-102.171,0 l-51.080,88.485L 798.889,764.622   z M 200.218,781.66l 51.103,88.485l 102.182,0 l 51.091-88.485l-51.091-88.485l-102.182,0 L 200.218,781.66z M 433.843,764.622l 102.182,0 l 51.091-88.497l-51.091-88.485   l-102.182,0 l-51.080,88.485L 433.843,764.622z M 430.986,553.576l 102.182,0 l 51.091-88.497l-51.091-88.474l-102.182,0 l-51.091,88.474L 430.986,553.576z M 527.455,165.559   l-102.171,0 l-51.091,88.497l 51.091,88.485l 102.171,0 l 51.103-88.485L 527.455,165.559z M 718.56,268.214l-102.182,0 l-51.103,88.508l 51.103,88.497l 102.182,0    l 51.080-88.497L 718.56,268.214z M 718.56,482.14l-102.194,0 l-51.091,88.485l 51.091,88.474l 102.194,0 l 51.080-88.474L 718.56,482.14z" />
<glyph unicode="&#xe024;" d="M 973.233,737.17l-190.886,190.898c-29.883,29.883-78.808,29.883-108.726,0L 490.176,744.577l 299.578-299.578L 973.233,628.467     C 1003.116,658.373, 1003.116,707.299, 973.233,737.17zM 620.122,478.822l-95.697-95.685l-96.134,96.134l 95.685,95.697c 13.225,13.225, 13.225,34.687,0,47.923c-13.225,13.236-34.71,13.236-47.935,0     l-95.685-95.674l-53.775,53.775l-183.514-183.479c-29.848-29.883-29.848-78.82,0-108.703l 190.921-190.886c 29.883-29.883, 78.808-29.883, 108.691,0     l 183.491,183.491l-53.787,53.798l 95.685,95.674c 13.213,13.248, 13.213,34.733,0,47.946C 654.831,492.047, 633.358,492.047, 620.122,478.822zM 995.651,243.63L 943.718,295.539L 885.646,237.467L 827.562,295.539L 775.63,243.584L 833.691,185.523L 775.63,127.462L 827.562,75.542L 885.623,133.603L 943.718,75.507L 995.651,127.462L 937.567,185.546   z" />
<glyph unicode="&#xe025;" d="M 1012.113,542.528c-14.999,217.129-188.444,390.597-405.596,405.596L 606.516,1088 l-61.033,0 l0-139.876   C 328.343,933.125, 154.886,759.645, 139.887,542.528L 0.012,542.528 l0-61.044 l 139.876,0 c 14.999-217.164, 188.456-390.597, 405.596-405.596l0-139.876 l 61.033,0 l0,139.876   c 217.164,14.999, 390.597,188.433, 405.596,405.596l 139.876,0 l0,61.044 L 1012.113,542.528 z M 841.974,246.049c-61.425-61.425-143.7-101.583-235.457-108.968  l0,170.888 l-61.033,0 l0-170.888 c-91.745,7.384-174.021,47.555-235.446,108.968c-61.367,61.39-101.572,143.666-108.956,235.423l 170.911,0 l0,61.044   l-170.911,0 c 7.384,91.745, 47.589,173.998, 108.956,235.446c 61.425,61.367, 143.7,101.549, 235.446,108.922l0-170.865 l 61.033,0 L 606.516,886.884   c 91.768-7.373, 174.033-47.555, 235.457-108.922c 61.344-61.448, 101.595-143.7, 108.933-235.446l-170.842,0 l0-61.044 l 170.842,0   C 943.569,389.715, 903.329,307.439, 841.974,246.049z" />
<glyph unicode="&#xe026;" d="M 203.927,269.596L 107.101,366.341L 430.502,366.341L 430.502,43.101L 333.677,139.846L 129.83-64L0,65.75 zM 1022.319-64L 1152,65.75L 948.154,269.596L 1044.899,366.341L 721.716,366.341L 721.659,43.101L 818.404,139.846 zM 1152,958.25L 1022.319,1088L 818.404,884.004L 721.659,980.749L 721.659,657.647L 1044.979,657.498L 948.073,754.404 zM 107.171,657.498L 430.353,657.498L 430.572,980.899L 333.746,884.004L 129.83,1088L0,958.1L 203.927,754.404 zM 576,652.694c-77.702,0-140.694-63.003-140.694-140.694c0-77.852, 63.003-140.855, 140.694-140.855c 77.702,0, 140.774,63.003, 140.774,140.855  C 716.774,589.702, 653.702,652.694, 576,652.694z" />
<glyph unicode="&#xe027;" d="M 1107.199,902.298L 963.51,1046.528c-19.803,20.022-59.316,13.052-87.828-15.379L 744.054,899.971L 562.959,1088L-1.037,1088 l0-1152 l 887.443,0 L 886.406,610.254 L 1091.532,814.63  C 1119.963,842.97, 1127.082,882.345, 1107.199,902.298z M 578.085,937.699l 99.821-103.657l-54.593-54.455L 578.085,779.587 L 578.085,937.699 z M 598.775,379.324l-198.524-80.398  l-42.682,42.831l 81.112,198.294L 598.775,379.324z M 792.945,29.37L 92.333,29.37 L 92.333,994.63 l 415.688,0 l0-285.074 l 44.963,0 l-53.142-52.946L 192.015,656.611 l0-46.725 l 260.963,0   l-42.071-41.921l-43.050-105.143L 192.015,462.821 l0-46.737 l 156.718,0 l-60.192-147.076l-96.526,0 l0-46.725 L 693.504,222.284 l0,46.725 L 423.095,269.009 l 203.512,82.426l 64.8,64.639l 2.108,0   l0,2.028 l 99.452,99.084L 792.968,29.37 z" horiz-adv-x="1117.44" />
<glyph unicode="&#xe028;" d="M 518.515,352.172l0-63.222 c0-107.919-78.831-197.326-181.878-215.101l0-63.521 l 55.803,0 L 392.44-64 L 206.554-64 l0,74.327 l 55.757,0 l0,63.521   C 159.333,91.624, 80.548,181.030, 80.548,288.95l0,63.222 c0,20.552, 16.646,37.198, 37.164,37.198c 20.552,0, 37.198-16.646, 37.198-37.198l0-63.222   c0-79.718, 64.835-144.518, 144.564-144.518c 79.764,0, 144.714,64.8, 144.714,144.518l0,63.222 c0,20.552, 16.646,37.198, 37.198,37.198  C 501.857,389.37, 518.515,372.723, 518.515,352.172zM 299.474,674.444c-61.505,0-111.456-49.801-111.456-111.606l0-255.756 c0-61.494, 49.951-111.525, 111.456-111.525c 61.609,0, 111.56,50.031, 111.56,111.525  L 411.034,562.849 C 411.034,624.643, 361.083,674.444, 299.474,674.444zM 436.977,742.4c0,3.594-0.749,6.97-2.028,10.276c-22.729,54.824-75.675,90.455-134.772,90.824l-2.327,0   c-59.178,0.449-112.389-34.272-136.017-88.796c-5.702-13.432, 0.415-28.881, 13.686-34.652c 13.501-5.622, 29.065,0.449, 34.802,13.72  c 14.999,34.952, 49.455,57.22, 87.264,57.001l 2.327,0 c 37.751-0.3, 71.804-23.328, 86.435-58.199c 5.322-13.421, 20.92-19.872, 34.284-14.17  C 430.825,722.516, 436.758,732.193, 436.977,742.4zM 496.754,820.54c 7.88,5.034, 12.372,13.501, 12.372,22.28c0,4.723-1.348,9.746-4.113,14.020c-44.029,70.952-120.303,113.933-203.962,114.382  l-2.062,0 c-83.739,0.749-160.566-41.034-205.724-111.306c-7.834-12.223-4.458-28.57, 7.764-36.369c 12.257-7.949, 28.535-4.504, 36.564,7.799  c 35.47,55.054, 95.512,87.529, 160.946,87.149l 2.143,0 c 65.434-0.518, 125.142-33.972, 159.633-89.395C 468.035,816.566, 484.381,812.891, 496.754,820.54zM 599.132,917.516C 536.060,1023.338, 424.973,1087.171, 302.020,1087.988l-2.327,0 C 176.774,1088.887, 64.719,1026.714, 0,921.72  c-7.615-12.372-3.825-28.57, 8.698-36.38c 12.407-7.58, 28.719-3.594, 36.334,8.698C 99.752,983.214, 195.034,1036.091, 299.508,1035.342l 2.143,0   c 104.291-0.968, 198.789-55.123, 252.196-144.968c 7.488-12.453, 23.697-16.727, 36.23-9.147c 8.248,5.023, 12.891,13.651, 12.891,22.568  C 602.957,908.449, 601.828,913.023, 599.132,917.516z" horiz-adv-x="599.040" />
<glyph unicode="&#xe029;" d="M 210.309,564.312C 132.86,761.638, 229.962,984.32, 427.116,1061.7c 154.783,60.745, 341.51,5.979, 430.917-105.212L 213.892,555.926  C 212.717,558.748, 211.438,561.467, 210.309,564.312zM 959.858,693.463c 2.004-6.428, 3.859-12.868, 5.357-19.354c 7.534-32.014, 15.817-115.626, 15.817-115.626l 80.179-201.876  c 1.544-3.64, 2.316-7.707, 2.316-12.015c0-17.038-13.951-30.931-31.035-30.931l-51.437,0 l0-107.263 c0-83.612-67.738-151.35-151.281-151.35l-60.123,0   l0-117.458 L 360.265-62.41 L 360.265,263.283 c-87.068,68.475-143.597,173.964-146.373,292.643L 959.858,693.463zM 1031.743,876.608c-1.509,0.115-37.048,2.627-88.831-7.2c-51.852-9.85-101.238-28.961-144.933-55.584l-47.174,53.268L 690.394,686.079  l 186.935,38.166l-41.23,46.552c 43.834,25.044, 86.538,37.371, 117.343,43.212c 43.546,8.283, 73.786,6.324, 74.074,6.301l 22.372-1.532l 1.809,22.337  l 2.592,33.8L 1031.743,876.608z" />
<glyph unicode="&#xe02a;" d="M 348.837,417.329c 27.936,0, 52.785-12.027, 70.019-30.678c 6.244,10.979, 9.976,23.259, 9.976,36.242     c0,42.152-35.885,76.447-79.983,76.447s-79.972-34.295-79.972-76.447c0-12.96, 3.732-25.263, 9.976-36.242     C 296.076,405.302, 320.913,417.329, 348.837,417.329zM 428.832,326.828c0,42.152-35.885,76.424-79.983,76.424s-79.972-34.272-79.972-76.424    c0-23.224, 10.932-44.732, 29.295-59.086c-0.035,0.668-0.035,1.325-0.035,1.981c0,27.613, 22.729,50.1, 50.688,50.1    c 27.959,0, 50.711-22.476, 50.711-50.1c0-0.657,0-1.313-0.035-2.016C 417.876,282.095, 428.832,303.649, 428.832,326.828zM 569.664,645.091c 4.147,1.083, 8.421,1.855, 12.902,1.855c 4.481,0, 8.744-0.772, 12.902-1.855    c 22.245-2.984, 41.91-13.283, 56.344-28.512c 6.659,11.255, 10.702,23.95, 10.702,37.428c0,42.14-35.827,76.435-79.937,76.435    c-44.099,0-79.972-34.295-79.972-76.435c0-13.455, 4.044-26.162, 10.737-37.428C 527.777,631.808, 547.43,642.107, 569.664,645.091zM 582.566,550.304c 27.924,0, 52.75-12.004, 70.007-30.666c 6.209,10.967, 9.93,23.259, 9.93,36.219     c0,42.152-35.827,76.435-79.937,76.435c-44.099,0-79.972-34.295-79.972-76.435c0-12.96, 3.732-25.252, 9.965-36.242     C 529.805,538.3, 554.642,550.304, 582.566,550.304zM 555.564,546.053c 8.617,2.488, 17.556,4.251, 27.003,4.251s 18.374-1.763, 26.98-4.251l0,19.469 l-1.025-0.518     l 1.025,2.362l0,53.384 c-6.705,7.338-16.174,12.154-26.98,12.154s-20.287-4.804-27.003-12.154l0-53.499 l 0.979-2.246l-0.979,0.484L 555.564,546.053 zM 776.978,645.091c 4.182,1.083, 8.433,1.855, 12.937,1.855s 8.755-0.772, 12.902-1.855    c 22.245-2.961, 41.898-13.26, 56.367-28.512c 6.659,11.255, 10.714,23.95, 10.714,37.428c0,42.14-35.839,76.435-79.937,76.435    s-79.96-34.295-79.96-76.435c0-13.455, 4.044-26.162, 10.737-37.428C 735.149,631.796, 754.79,642.095, 776.978,645.091zM 789.949,550.304c 27.924,0, 52.75-12.004, 70.007-30.666c 6.198,10.967, 9.93,23.236, 9.93,36.219     c0,42.152-35.839,76.435-79.937,76.435s-79.96-34.295-79.96-76.435c0-12.96, 3.721-25.252, 9.965-36.219     C 737.176,538.3, 762.025,550.304, 789.949,550.304zM 880.174,870.18L 265.098,870.18 c-93.162,0-168.699-75.583-168.699-168.722l0-386.623 c0-93.151, 75.525-168.722, 168.699-168.722     l 615.076,0 c 93.151,0, 168.722,75.583, 168.722,168.722L 1048.896,701.446 C 1048.908,794.597, 973.325,870.18, 880.174,870.18z M 961.021,360.673     c0-71.919-61.609-130.211-137.595-130.211l-6.474,0 L 816.952,426.568 c-6.693,7.361-16.174,12.165-27.026,12.165c-10.806,0-20.287-4.804-26.98-12.131     l0-196.128 L 609.546,230.474 L 609.546,426.602 c-6.705,7.327-16.174,12.131-26.98,12.131s-20.287-4.804-27.003-12.131l0-196.128 L 375.805,230.474 l0,63.13      c-6.716,7.327-16.186,12.131-26.98,12.131c-10.806,0-20.264-4.804-26.98-12.131l0-63.13 c-75.963,0-137.583,58.291-137.583,130.211L 184.262,659.087      c0,71.919, 61.62,130.245, 137.583,130.245l0-280.201 c 8.605,2.488, 17.545,4.251, 27.003,4.251c 9.423,0, 18.374-1.74, 26.957-4.251L 375.805,789.332 l 179.758,0      l0-49.11 c 8.617,2.488, 17.556,4.251, 27.003,4.251s 18.374-1.763, 26.98-4.251l0,49.11 l 153.389,0 l0-49.121 c 8.605,2.511, 17.556,4.274, 27.014,4.274     s 18.374-1.763, 26.991-4.251l0,49.11 l 6.474,0 c 75.997,0, 137.595-58.326, 137.595-130.245L 961.010,360.673 zM 789.949,536.25c-9.516,0-18.536-1.866-27.014-4.792l0-86.492 c 7.845,4.919, 17.038,7.845, 26.98,7.845     s 19.169-2.961, 27.026-7.88l0,86.527 C 808.474,534.395, 799.465,536.25, 789.949,536.25zM 869.898,459.826c0,42.152-35.839,76.435-79.937,76.435s-79.96-34.284-79.96-76.435c0-23.224, 10.909-44.732, 29.284-59.086   c-0.035,0.668-0.081,1.313-0.081,1.981c0,27.613, 22.775,50.1, 50.723,50.1s 50.723-22.476, 50.723-50.1c0-0.668-0.035-1.359-0.069-2.016   C 858.977,415.094, 869.898,436.602, 869.898,459.826zM 662.504,459.826c0,42.152-35.827,76.435-79.937,76.435c-44.099,0-79.972-34.284-79.972-76.435   c0-23.224, 10.909-44.732, 29.284-59.086c-0.035,0.668-0.069,1.313-0.069,1.981c0,27.613, 22.764,50.1, 50.723,50.1s 50.723-22.476, 50.723-50.1   c0-0.668-0.035-1.359-0.069-2.016C 651.594,415.094, 662.504,436.602, 662.504,459.826z" />
<glyph unicode="&#xe02b;" d="M 459.003,780.669L 248.659,570.303L 661.997,570.303L 661.997,436.579L 250.134,436.579L 459.383,227.341L 276.653,227.721L 276.653,227.721L0,504.374L 276.653,780.669 zM 655.442,569.727L 1012.919,569.727L 1012.919,436.337L 655.442,436.337zM 1009.117,786.234L 1129.64,786.234L 1129.64,435.841L 1009.117,435.841z" />
<glyph unicode="&#xe02c;" d="M 1152,1088L 288,512L 504,368L0-64L 864,368L 648,512 z" />
<glyph unicode="&#xe02d;" d="M 895.991,768.009c-70.572,0-134.577-28.719-180.933-75.064L 391.703,376.317c-34.767-34.779-82.771-56.31-135.706-56.31
	c-105.869,0-192.004,86.135-192.004,192.004S 150.129,703.992, 255.997,703.992c 52.934,0, 100.938-21.531, 135.706-56.298l 32.878-32.187
	c-5.472-12.061-8.582-25.413-8.582-39.514c0-26.519, 10.748-50.515, 28.109-67.899l 135.786,135.786c-17.372,17.361-41.38,28.109-67.899,28.109
	c-15.529,0-30.159-3.767-43.142-10.31l-31.922,31.254C 390.574,739.29, 326.58,768.009, 255.997,768.009C 114.843,768.009,0,653.166,0,512.012
	s 114.843-256.009, 255.997-256.009c 70.572,0, 134.577,28.719, 180.945,75.076l 323.355,316.639c 34.767,34.767, 82.771,56.298, 135.694,56.298
	c 105.88,0, 192.004-86.124, 192.004-192.004s-86.124-192.004-192.004-192.004c-37.659,0-72.691,11.048-102.355,29.848
	c 4.055,10.633, 6.359,22.107, 6.359,34.157c0,26.519-10.748,50.515-28.109,67.899l-24.572-24.584l-64.005,64.005l-22.625-22.625l 64.005-64.005
	l-41.38-41.38l-64.005,64.005l-22.625-22.625l 64.005-64.005l-24.584-24.572c 17.384-17.372, 41.38-28.109, 67.899-28.109
	c 17.372,0, 33.627,4.689, 47.67,12.741c 41.138-28.178, 90.824-44.755, 144.323-44.755c 141.166,0, 256.009,114.854, 256.009,256.009S 1037.157,768.009, 895.991,768.009z" />
<glyph unicode="&#xe02e;" d="M 1088.64,516.009c0,90.086-57.842,166.487-138.321,194.607C 898.548,867.588, 750.551,981.244, 576.449,981.244  c-173.964,0-321.834-113.472-373.732-270.259C 121.686,683.164, 63.36,606.464, 63.36,516.009c0-113.921, 92.367-206.277, 206.289-206.277L 269.649,686.217   c 41.76,129.623, 163.469,223.684, 306.801,223.684c 142.341,0, 263.359-92.794, 305.937-221.034l0-353.537 c-14.688-30.977-101.134-202.406-215.378-207.798  c-8.87,24.123-31.841,41.414-59.040,41.414c-34.825,0-63.095-28.236-63.095-63.095c0-34.836, 28.259-63.107, 63.095-63.107  c 27.395,0, 50.481,17.545, 59.201,41.944c 136.166,4.884, 230.7,183.974, 252.104,228.522C 1015.546,330.606, 1088.64,414.702, 1088.64,516.009z" />
<glyph unicode="&#xe02f;" d="M 125.407,53.873L 276.653,53.873L 276.653,619.332L 25.644,619.332   zM 1126.345,531.653c0,60.468-48.361,69.604-48.361,69.604l-314.496,0 c0,0-21.208,27.153-3.064,84.637    c 18.132,57.473, 21.208,142.111, 6.060,178.399c-15.080,36.276-42.336,102.828-111.894,105.834c-40.792-6.244-54.432-39.283-54.432-39.283l0-133.114     c0,0-129.98-235.814-148.113-238.81c-18.19-3.064-90.593-12.142-90.593-12.142l0-417.312 l 21.036,0 c0,0, 154.195-75.583, 184.401-75.583    c 30.275,0, 381.059,0, 381.059,0s 54.42,12.131, 54.42,72.564c0,39.283-33.27,63.544-33.27,63.544s 81.688,6.025, 81.688,75.56    c0,28.558-39.364,54.432-39.364,54.432s 75.629,15.137, 72.634,78.612c-6.071,39.306-27.256,60.503-27.256,60.503S 1126.345,471.208, 1126.345,531.653z" />
<glyph unicode="&#xe030;" d="M 528.376,305.884L 313.908,538.853c-3.007,3.237-7.557,4.355-11.624,2.845c-4.136-1.452-6.958-5.23-7.2-9.585  l-12.741-220.101c-0.276-5.161, 3.076-9.688, 7.834-11.048c 0.76-0.23, 1.578-0.369, 2.385-0.38l 227.209-12.902  c 4.401-0.253, 8.525,2.177, 10.426,6.175C 532.086,297.878, 531.36,302.612, 528.376,305.884z M 433.117,311.529  c-1.659-5.772-7.672-9.078-13.432-7.453c-5.748,1.659-9.089,7.649-7.419,13.421l 6.29,21.888l-49.202,14.077l-6.29-21.9  c-1.67-5.76-7.661-9.101-13.398-7.442c-5.76,1.636-9.089,7.638-7.43,13.386l 6.255,21.923l-35.067,10.022  c-5.76,1.647-9.089,7.649-7.43,13.409c 1.636,5.76, 7.638,9.089, 13.398,7.442l 35.090-10.022l 13.801,48.154c 1.659,5.748, 7.672,9.078, 13.409,7.442  c 5.748-1.659, 9.089-7.661, 7.442-13.432l-13.824-48.142l 49.213-14.077l 2.292,7.972c 1.647,5.737, 7.638,9.101, 13.409,7.442  c 5.76-1.636, 9.078-7.638, 7.442-13.409L 433.117,311.529zM 655.753,637.787L 606.516,651.864L 591.955,601.038L 641.157,586.972 zM 627.080,723.599L 676.305,709.51L 661.743,658.65L 612.53,672.739zM 635.19,566.098L 585.976,580.164L 571.38,529.349L 620.605,515.283 zM 577.567,815.287L 626.78,801.21L 612.23,750.383L 563.028,764.461zM 557.027,743.621L 606.182,729.555L 591.633,678.694L 542.477,692.76zM 696.879,781.199L 647.666,795.265L 633.070,744.451L 682.318,730.362 zM 766.944,761.166L 717.731,775.244L 703.135,724.406L 752.348,710.328 zM 697.133,703.555L 746.358,689.489L 731.82,638.628L 682.606,652.694zM 676.581,631.843L 725.806,617.777L 711.291,566.962L 662.066,581.028zM 705.254,546.076L 656.052,560.142L 641.457,509.316L 690.659,495.25 zM 536.198,749.577L 486.985,763.643L 472.389,712.794L 521.603,698.716 zM 367.43,875.433L 416.621,861.356L 402.083,810.518L 352.892,824.595zM 297.354,895.42L 346.591,881.343L 332.052,830.493L 282.816,844.571zM 1006.664,930.188c-77.841,22.257-124.439,8.905-126.42,8.329c-3.537-1.071-6.29-3.848-7.315-7.43l-37.336-130.072  L 258.083,966.153c-5.748,1.647-11.739-1.693-13.398-7.453L 215.032,855.296l-31.749,34.479c-2.972,3.214-7.569,4.366-11.635,2.834  c-4.113-1.44-6.924-5.23-7.177-9.585L 149.656,627.43L 49.755,279.135c-1.636-5.76, 1.693-11.762, 7.442-13.421l 70.364-20.114l-3.94-68.21  c-0.3-5.161, 3.064-9.688, 7.788-11.059c 0.772-0.219, 1.59-0.346, 2.408-0.38l 339.713-19.273l 285.005-81.504  c 123.898-35.412, 142.111,28.109, 151.891,62.266l 169.908,592.289l 25.033,87.287C 1117.74,850.147, 1084.193,908, 1006.664,930.188z M 279.533,911.836  c 1.647,5.748, 7.649,9.089, 13.409,7.442l 490.406-140.221c 5.737-1.67, 9.089-7.672, 7.43-13.421l-109.405-381.496  c-1.67-5.772-7.672-9.112-13.444-7.465c-5.737,1.67-9.066,7.672-7.43,13.421l 24.18,84.292l-49.202,14.066l-12.234-42.624  c-1.67-5.76-7.649-9.112-13.398-7.453c-5.76,1.647-9.089,7.649-7.453,13.409l 12.234,42.636l-59.639,17.050  c-5.76,1.647-9.089,7.638-7.43,13.409l 17.568,61.263l-49.213,14.066l-8.559-29.837c-1.659-5.76-7.672-9.101-13.432-7.453  c-5.748,1.647-9.066,7.638-7.419,13.398l 8.548,29.86l-59.604,17.050c-5.76,1.647-9.089,7.661-7.442,13.398l 17.568,61.263l-49.225,14.089  l-5.53-19.296c-1.647-5.76-7.649-9.112-13.409-7.465c-5.772,1.647-9.089,7.661-7.43,13.421l 26.093,91.020l-49.179,14.066l-14.193-49.467  c-1.647-5.76-7.649-9.112-13.421-7.465c-5.76,1.67-9.089,7.672-7.43,13.421l 14.17,49.478l-57.519,16.451  c-0.772,0.046-1.486-0.035-2.223,0.173c-5.76,1.647-9.101,7.661-7.453,13.421L 279.533,911.836z M 127.423,302.935  c-1.624-5.748-7.638-9.078-13.398-7.442c-5.76,1.659-9.089,7.661-7.442,13.432l 11.82,41.172c 1.647,5.737, 7.661,9.089, 13.398,7.442  c 5.772-1.636, 9.089-7.638, 7.442-13.409L 127.423,302.935z M 145.901,187.009l 38.753,669.22l 82.068-89.176l-24.25-21.646  c-4.493-3.997-4.873-10.852-0.887-15.322c 1.417-1.613, 3.18-2.673, 5.092-3.203c 3.468-0.991, 7.35-0.242, 10.218,2.327l 24.526,21.888  l 27.775-30.159l-24.399-21.773c-4.493-3.997-4.873-10.852-0.887-15.31c 1.428-1.613, 3.191-2.673, 5.092-3.214  c 3.444-0.991, 7.361-0.23, 10.218,2.327l 24.664,22.015l 27.786-30.194l-24.526-21.865c-4.481-3.997-4.861-10.863-0.887-15.333  c 1.44-1.59, 3.203-2.65, 5.092-3.203c 3.456-0.991, 7.35-0.242, 10.23,2.339l 24.756,22.107l 27.786-30.171l-24.641-21.992  c-4.493-3.974-4.873-10.852-0.876-15.31c 1.405-1.613, 3.18-2.661, 5.080-3.214c 3.468-0.991, 7.327-0.242, 10.218,2.339l 24.895,22.234  l 27.786-30.194l-24.78-22.084c-4.458-3.974-4.861-10.852-0.887-15.322c 1.417-1.59, 3.203-2.65, 5.092-3.18  C 419.478,540.961, 423.36,541.699, 426.24,544.256l 25.010,22.337l 27.786-30.194l-24.895-22.199c-4.481-3.997-4.85-10.852-0.876-15.333  c 1.428-1.59, 3.191-2.638, 5.080-3.191c 3.468-0.991, 7.361-0.242, 10.218,2.327l 25.137,22.441l 27.786-30.159l-24.998-22.326  c-4.47-3.986-4.861-10.84-0.887-15.31c 1.417-1.613, 3.203-2.65, 5.092-3.203c 3.468-0.979, 7.35-0.242, 10.218,2.327l 25.275,22.545  l 27.775-30.182l-25.102-22.395c-4.493-3.997-4.861-10.852-0.887-15.31c 1.417-1.59, 3.203-2.661, 5.069-3.214  c 3.468-0.979, 7.361-0.23, 10.23,2.35l 25.367,22.614l 27.763-30.159l-25.24-22.51c-4.47-3.997-4.884-10.852-0.887-15.322  c 1.417-1.624, 3.18-2.673, 5.080-3.203c 3.468-0.979, 7.338-0.242, 10.23,2.327l 25.505,22.775l 27.763-30.182l-25.344-22.637  c-4.504-3.997-4.861-10.84-0.876-15.299c 1.405-1.601, 3.191-2.65, 5.080-3.214c 3.468-1.002, 7.361-0.242, 10.218,2.35l 25.62,22.844  l 29.468-32.014l-15.022-52.416c-1.106-3.802-0.046-7.891, 2.753-10.656c 2.788-2.799, 6.877-3.836, 10.702-2.73  c 0.288,0.069, 22.245,5.887, 60.25,2.051l 85.052-92.367L 145.901,187.009z M 903.686,182.47c-14.319,28.328-45.112,54.755-91.941,68.141  c-50.262,14.365-87.517,13.905-108.115,11.612l 188.352,656.698c 13.755,2.431, 52.278,6.532, 108.703-9.585c 71.055-20.333, 91.826-68.59, 83.831-96.353  L 903.686,182.47zM 416.886,783.676L 466.099,769.599L 451.561,718.726L 402.348,732.804zM 486.708,841.288L 437.484,855.365L 422.899,804.55L 472.147,790.473 zM 556.762,821.266L 507.548,835.332L 492.964,784.506L 542.177,770.428 zM 585.677,657.832L 536.486,671.898L 521.891,621.071L 571.092,607.005 zM 466.387,691.908L 515.601,677.842L 501.062,627.004L 451.86,641.082z" />
<glyph unicode="&#xe031;" d="M 178.664,613.952L 178.664,736.628L 739.699,736.628L 739.722,736.64L 850.844,840.308L 74.984,840.308L 74.984,517.288L 74.984,517.299         zM 789.235,126.057L 436.516,126.057L 372.246,66.153L 372.223,66.188L 372.211,66.176L 316.351,126.057L 178.664,126.057L 178.664,273.663L 74.984,384.819L 74.984,384.831L 74.984,22.377L 892.915,22.377L 892.915,551.571L 835.315,497.865L 789.235,454.861    zM 920.045,856.886L 380.333,353.692L 180.576,567.849L 57.888,453.455L 374.112,114.537L 1036.512,732.009    z" horiz-adv-x="1094.4" />
<glyph unicode="&#xe032;" d="M 814.288,806.383L 541.006,806.383 c-43.79,0-79.298-35.482-79.298-79.285l0-371.893 c0-43.79, 35.509-79.312, 79.298-79.312l 0.447,0 l0-263.415 
		c0-43.79, 34.506-79.312, 77.103-79.312l 118.209,0 c 42.556,0, 77.089,35.509, 77.089,79.312L 813.854,275.894 l 0.434,0 c 43.79,0, 79.298,35.509, 79.298,79.312l0,371.893 
		C 893.573,770.902, 858.077,806.383, 814.288,806.383zM 548.216,961.388A129.431,129.431 180 1 1 807.078,961.388A129.431,129.431 180 1 1 548.216,961.388zM 1287.34,775.469L 1053.172,775.469 c-37.555,0-67.954-30.426-67.954-67.954l0-318.684 c0-37.555, 30.399-67.982, 67.954-67.982l 0.379,0 l0-225.711 
		c0-37.542, 29.573-67.954, 66.043-67.954l 101.308,0 c 36.471,0, 66.057,30.413, 66.057,67.954L 1286.96,320.863 l 0.366,0 c 37.555,0, 67.968,30.426, 67.968,67.982L 1355.294,707.528 
		C 1355.294,745.043, 1324.881,775.469, 1287.34,775.469zM 1059.339,908.274A110.917,110.917 180 1 1 1281.173,908.274A110.917,110.917 180 1 1 1059.339,908.274zM 302.122,775.469L 67.954,775.469 C 30.426,775.469,0,745.043,0,707.528l0-318.684 c0-37.555, 30.426-67.982, 67.954-67.982l 0.379,0 l0-225.711 
		c0-37.542, 29.6-67.954, 66.057-67.954l 101.295,0 c 36.485,0, 66.057,30.413, 66.057,67.954L 301.743,320.863 l 0.379,0 c 37.528,0, 67.954,30.426, 67.954,67.982L 370.077,707.528 
		C 370.063,745.043, 339.637,775.469, 302.122,775.469zM 74.135,908.274A110.904,110.904 180 1 1 295.942,908.274A110.904,110.904 180 1 1 74.135,908.274z" horiz-adv-x="1355.294" />
<glyph unicode="&#xe033;" d="M 989.338,835.251c-64.385,0-116.582-52.197-116.582-116.582c0-24.526, 7.603-47.267, 20.552-66.056l-44.594-44.594C 829.935,620.979, 807.195,628.582, 782.669,628.582
	s-47.267-7.603-66.056-20.552l-44.594,44.594C 684.979,671.402, 692.582,694.143, 692.582,718.669c0,64.385-52.197,116.582-116.582,116.582S 459.418,783.054, 459.418,718.669
	c0-24.526, 7.603-47.267, 20.563-66.056l-44.594-44.594C 416.598,620.979, 393.869,628.582, 369.331,628.582s-47.267-7.603-66.056-20.552l-44.594,44.594
	C 271.642,671.402, 279.245,694.143, 279.245,718.669c0,64.385-52.197,116.582-116.582,116.582S 46.080,783.054, 46.080,718.669s 52.197-116.582, 116.582-116.582c 24.538,0, 47.267,7.603, 66.056,20.552l 44.594-44.594
	c-12.937-18.778-20.563-41.518-20.563-66.056c0-64.385, 52.197-116.582, 116.582-116.582c 24.538,0, 47.267,7.603, 66.056,20.552l 44.594-44.594
	C 467.021,352.598, 459.418,329.857, 459.418,305.331c0-64.385, 52.197-116.582, 116.582-116.582s 116.582,52.197, 116.582,116.582c0,24.526-7.603,47.267-20.552,66.056l 44.594,44.594
	C 735.402,403.021, 758.143,395.418, 782.669,395.418c 64.385,0, 116.582,52.197, 116.582,116.582c0,24.526-7.603,47.267-20.552,66.056l 44.594,44.594
	C 942.071,609.69, 964.812,602.086, 989.338,602.086c 64.385,0, 116.582,52.197, 116.582,116.582S 1053.723,835.251, 989.338,835.251z M 686.638,445.944l-44.594-44.594C 623.267,414.31, 600.526,421.914, 576,421.914
	c-24.538,0-47.267-7.603-66.056-20.552l-44.594,44.594c 12.937,18.778, 20.563,41.518, 20.563,66.056s-7.603,47.267-20.563,66.056l 44.594,44.594
	C 528.733,609.69, 551.462,602.086, 576,602.086c 24.526,0, 47.267,7.603, 66.056,20.552l 44.594-44.594C 673.69,559.267, 666.086,536.526, 666.086,512
	S 673.69,464.733, 686.638,445.944z" />
<glyph unicode="&#x20;" horiz-adv-x="576" />
</font>
</defs>
</svg>
